{
	"asset":{
		"generator":"Khronos glTF Blender I/O v4.1.63",
		"version":"2.0"
	},
	"scene":0,
	"scenes":[
		{
			"extras":{
				"blenrig_guide":{
					"state_keyframe_insert_available":0
				},
				"wiggle":{
					"is_rendering":0
				},
				"MustardUI_Settings":{},
				"uuid":"fa3c152b-1ba1-48ef-92ad-ff99a06530cb",
				"assets reported":{},
				"skinify":{
					"connect_mesh":0,
					"connect_parents":0,
					"generate_all":0,
					"thickness":0.800000011920929,
					"finger_thickness":0.25,
					"apply_mod":1,
					"parent_armature":1,
					"sub_level":1
				},
				"flip_fluid":{},
				"flip_fluid_helper":{
					"is_auto_frame_load_cmd_operator_running":0,
					"alembic_output_filepath":"//1911.abc",
					"is_alembic_output_filepath_set":1
				},
				"flip_fluid_material_library":{
					"library_path":"C:\\Users\\User\\AppData\\Roaming\\Blender Foundation\\Blender\\4.1\\scripts\\addons\\flip_fluids_addon\\materials\\material_library"
				},
				"sun_pos_properties":{
					"show_surface":0,
					"show_analemmas":0,
					"show_north":0,
					"latitude":0.0,
					"day_of_year":111,
					"sun_object":{},
					"object_collection":{}
				},
				"fluid_painter":{},
				"scatter_properties":{}
			},
			"name":"Scene",
			"nodes":[
				4
			]
		}
	],
	"nodes":[
		{
			"name":"Slide",
			"rotation":[
				1.848562334316739e-07,
				4.0007094526117726e-07,
				-0.5940911173820496,
				0.8043977618217468
			],
			"translation":[
				-0.00999666377902031,
				0.3351808786392212,
				1.726694343062718e-08
			]
		},
		{
			"name":"Magazine",
			"rotation":[
				4.000675790649666e-09,
				1.1322063286911543e-08,
				-0.03142913803458214,
				0.9995059967041016
			],
			"scale":[
				0.9999999403953552,
				0.9999998807907104,
				1
			],
			"translation":[
				-0.03650803118944168,
				0.03204882889986038,
				-4.577854095799694e-09
			]
		},
		{
			"children":[
				0,
				1
			],
			"name":"Handle",
			"rotation":[
				2.260306608548035e-08,
				4.4146613475959384e-08,
				-0.14870929718017578,
				0.9888809323310852
			],
			"scale":[
				1,
				1.0000001192092896,
				1
			],
			"translation":[
				-0.026940954849123955,
				-0.1782963126897812,
				2.2890843387468607e-10
			]
		},
		{
			"extras":{
				"flip_fluid":{}
			},
			"mesh":0,
			"name":"m1911 body",
			"skin":0
		},
		{
			"children":[
				3,
				2
			],
			"extras":{
				"flip_fluid":{},
				"wiggle_enable":0
			},
			"name":"Armature"
		}
	],
	"materials":[
		{
			"doubleSided":true,
			"extras":{
				"flip_fluid_material_library":{},
				"mmd_material":{}
			},
			"name":"M1911 Metal",
			"normalTexture":{
				"index":0
			},
			"pbrMetallicRoughness":{
				"baseColorTexture":{
					"index":1
				},
				"metallicRoughnessTexture":{
					"index":2
				}
			}
		},
		{
			"doubleSided":true,
			"extras":{
				"flip_fluid_material_library":{},
				"mmd_material":{}
			},
			"name":"M1911 Handle",
			"normalTexture":{
				"index":3
			},
			"pbrMetallicRoughness":{
				"baseColorTexture":{
					"index":4
				},
				"metallicRoughnessTexture":{
					"index":5
				}
			}
		}
	],
	"meshes":[
		{
			"name":"m1911",
			"primitives":[
				{
					"attributes":{
						"POSITION":0,
						"NORMAL":1,
						"TEXCOORD_0":2,
						"JOINTS_0":3,
						"WEIGHTS_0":4
					},
					"indices":5,
					"material":0
				},
				{
					"attributes":{
						"POSITION":6,
						"NORMAL":7,
						"TEXCOORD_0":8,
						"JOINTS_0":9,
						"WEIGHTS_0":10
					},
					"indices":11,
					"material":1
				}
			]
		}
	],
	"textures":[
		{
			"sampler":0,
			"source":0
		},
		{
			"sampler":0,
			"source":1
		},
		{
			"sampler":0,
			"source":2
		},
		{
			"sampler":0,
			"source":0
		},
		{
			"sampler":0,
			"source":1
		},
		{
			"sampler":0,
			"source":2
		}
	],
	"images":[
		{
			"mimeType":"image/png",
			"name":"1911 Normal",
			"uri":"../../Models/Blender/1911/1911%20Normal.png"
		},
		{
			"mimeType":"image/png",
			"name":"1911 Diffuse",
			"uri":"../../Models/Blender/1911/1911%20Diffuse.png"
		},
		{
			"mimeType":"image/png",
			"name":"1911 Roughness",
			"uri":"../../Models/Blender/1911/1911%20Roughness.png"
		}
	],
	"skins":[
		{
			"inverseBindMatrices":12,
			"joints":[
				2,
				0,
				1
			],
			"name":"Armature"
		}
	],
	"accessors":[
		{
			"bufferView":0,
			"componentType":5126,
			"count":2944,
			"max":[
				0.5329999923706055,
				0.197859987616539,
				0.03363687917590141
			],
			"min":[
				-0.11554648727178574,
				-0.2147507667541504,
				-0.03363955765962601
			],
			"type":"VEC3"
		},
		{
			"bufferView":1,
			"componentType":5126,
			"count":2944,
			"type":"VEC3"
		},
		{
			"bufferView":2,
			"componentType":5126,
			"count":2944,
			"type":"VEC2"
		},
		{
			"bufferView":3,
			"componentType":5121,
			"count":2944,
			"type":"VEC4"
		},
		{
			"bufferView":4,
			"componentType":5126,
			"count":2944,
			"type":"VEC4"
		},
		{
			"bufferView":5,
			"componentType":5123,
			"count":10128,
			"type":"SCALAR"
		},
		{
			"bufferView":6,
			"componentType":5126,
			"count":1836,
			"max":[
				0.0958000123500824,
				0.0910000205039978,
				0.035096000880002975
			],
			"min":[
				-0.07993999123573303,
				-0.1868000030517578,
				-0.035587918013334274
			],
			"type":"VEC3"
		},
		{
			"bufferView":7,
			"componentType":5126,
			"count":1836,
			"type":"VEC3"
		},
		{
			"bufferView":8,
			"componentType":5126,
			"count":1836,
			"type":"VEC2"
		},
		{
			"bufferView":9,
			"componentType":5121,
			"count":1836,
			"type":"VEC4"
		},
		{
			"bufferView":10,
			"componentType":5126,
			"count":1836,
			"type":"VEC4"
		},
		{
			"bufferView":11,
			"componentType":5123,
			"count":9216,
			"type":"SCALAR"
		},
		{
			"bufferView":12,
			"componentType":5126,
			"count":3,
			"type":"MAT4"
		}
	],
	"bufferViews":[
		{
			"buffer":0,
			"byteLength":35328,
			"byteOffset":0,
			"target":34962
		},
		{
			"buffer":0,
			"byteLength":35328,
			"byteOffset":35328,
			"target":34962
		},
		{
			"buffer":0,
			"byteLength":23552,
			"byteOffset":70656,
			"target":34962
		},
		{
			"buffer":0,
			"byteLength":11776,
			"byteOffset":94208,
			"target":34962
		},
		{
			"buffer":0,
			"byteLength":47104,
			"byteOffset":105984,
			"target":34962
		},
		{
			"buffer":0,
			"byteLength":20256,
			"byteOffset":153088,
			"target":34963
		},
		{
			"buffer":0,
			"byteLength":22032,
			"byteOffset":173344,
			"target":34962
		},
		{
			"buffer":0,
			"byteLength":22032,
			"byteOffset":195376,
			"target":34962
		},
		{
			"buffer":0,
			"byteLength":14688,
			"byteOffset":217408,
			"target":34962
		},
		{
			"buffer":0,
			"byteLength":7344,
			"byteOffset":232096,
			"target":34962
		},
		{
			"buffer":0,
			"byteLength":29376,
			"byteOffset":239440,
			"target":34962
		},
		{
			"buffer":0,
			"byteLength":18432,
			"byteOffset":268816,
			"target":34963
		},
		{
			"buffer":0,
			"byteLength":192,
			"byteOffset":287248
		}
	],
	"samplers":[
		{
			"magFilter":9729,
			"minFilter":9987
		}
	],
	"buffers":[
		{
			"byteLength":287440,
			"uri":"1911-d87b7259068126ffccf6a4dab5558434.bin"
		}
	]
}
