{
	"asset":{
		"generator":"Khronos glTF Blender I/O v4.1.63",
		"version":"2.0"
	},
	"extensionsUsed":[
		"KHR_materials_specular"
	],
	"scene":0,
	"scenes":[
		{
			"extras":{
				"blenrig_guide":{
					"state_keyframe_insert_available":0
				},
				"wiggle":{
					"is_rendering":0
				},
				"MustardUI_Settings":{},
				"uuid":"fa3c152b-1ba1-48ef-92ad-ff99a06530cb",
				"assets reported":{},
				"skinify":{
					"connect_mesh":0,
					"connect_parents":0,
					"generate_all":0,
					"thickness":0.800000011920929,
					"finger_thickness":0.25,
					"apply_mod":1,
					"parent_armature":1,
					"sub_level":1
				},
				"flip_fluid":{},
				"flip_fluid_helper":{
					"is_auto_frame_load_cmd_operator_running":0,
					"alembic_output_filepath":"//1911.abc",
					"is_alembic_output_filepath_set":1
				},
				"flip_fluid_material_library":{
					"library_path":"C:\\Users\\User\\AppData\\Roaming\\Blender Foundation\\Blender\\4.1\\scripts\\addons\\flip_fluids_addon\\materials\\material_library"
				},
				"sun_pos_properties":{
					"show_surface":0,
					"show_analemmas":0,
					"show_north":0,
					"latitude":0.0,
					"day_of_year":15,
					"sun_object":{},
					"object_collection":{}
				},
				"fluid_painter":{},
				"scatter_properties":{}
			},
			"name":"Scene",
			"nodes":[
				0,
				1,
				2
			]
		}
	],
	"nodes":[
		{
			"extras":{
				"flip_fluid":{}
			},
			"mesh":0,
			"name":"1911 Body"
		},
		{
			"extras":{
				"flip_fluid":{}
			},
			"mesh":1,
			"name":"1911 Slide"
		},
		{
			"extras":{
				"flip_fluid":{}
			},
			"mesh":2,
			"name":"1911 Magazine"
		}
	],
	"materials":[
		{
			"doubleSided":true,
			"extensions":{
				"KHR_materials_specular":{
					"specularFactor":0
				}
			},
			"extras":{
				"mmd_material":{},
				"flip_fluid_material_library":{}
			},
			"name":"1911",
			"normalTexture":{
				"index":0
			},
			"pbrMetallicRoughness":{
				"baseColorTexture":{
					"index":1
				},
				"metallicFactor":0,
				"roughnessFactor":0.9683772325515747
			}
		}
	],
	"meshes":[
		{
			"name":"t6_wpn_pistol_m1911_view_LOD_0",
			"primitives":[
				{
					"attributes":{
						"POSITION":0,
						"NORMAL":1,
						"TEXCOORD_0":2,
						"TANGENT":3
					},
					"indices":4,
					"material":0
				}
			]
		},
		{
			"name":"t6_wpn_pistol_m1911_view_LOD_0.001",
			"primitives":[
				{
					"attributes":{
						"POSITION":5,
						"NORMAL":6,
						"TEXCOORD_0":7,
						"TANGENT":8
					},
					"indices":9,
					"material":0
				}
			]
		},
		{
			"name":"t6_wpn_pistol_m1911_view_LOD_0.002",
			"primitives":[
				{
					"attributes":{
						"POSITION":10,
						"NORMAL":11,
						"TEXCOORD_0":12,
						"TANGENT":13
					},
					"indices":14,
					"material":0
				}
			]
		}
	],
	"textures":[
		{
			"sampler":0,
			"source":0
		},
		{
			"sampler":0,
			"source":1
		}
	],
	"images":[
		{
			"mimeType":"image/png",
			"name":"m1911 Normal",
			"uri":"../../Models/Blender/1911/1911%20Normal.png"
		},
		{
			"mimeType":"image/png",
			"name":"m1911 Diffuse",
			"uri":"../../Models/Blender/1911/1911%20Diffuse.png"
		}
	],
	"accessors":[
		{
			"bufferView":0,
			"componentType":5126,
			"count":5293,
			"max":[
				0.030805405229330063,
				0.18598008155822754,
				0.12658551335334778
			],
			"min":[
				-0.04820768162608147,
				-0.20165786147117615,
				-0.5280318856239319
			],
			"type":"VEC3"
		},
		{
			"bufferView":1,
			"componentType":5126,
			"count":5293,
			"type":"VEC3"
		},
		{
			"bufferView":2,
			"componentType":5126,
			"count":5293,
			"type":"VEC2"
		},
		{
			"bufferView":3,
			"componentType":5126,
			"count":5293,
			"type":"VEC4"
		},
		{
			"bufferView":4,
			"componentType":5123,
			"count":6096,
			"type":"SCALAR"
		},
		{
			"bufferView":5,
			"componentType":5126,
			"count":2825,
			"max":[
				0.03291113302111626,
				0.20224598050117493,
				0.0500640943646431
			],
			"min":[
				-0.03053470514714718,
				0.07864131033420563,
				-0.5244813561439514
			],
			"type":"VEC3"
		},
		{
			"bufferView":6,
			"componentType":5126,
			"count":2825,
			"type":"VEC3"
		},
		{
			"bufferView":7,
			"componentType":5126,
			"count":2825,
			"type":"VEC2"
		},
		{
			"bufferView":8,
			"componentType":5126,
			"count":2825,
			"type":"VEC4"
		},
		{
			"bufferView":9,
			"componentType":5123,
			"count":2916,
			"type":"SCALAR"
		},
		{
			"bufferView":10,
			"componentType":5126,
			"count":146,
			"max":[
				0.016739005222916603,
				0.13614106178283691,
				0.07493182271718979
			],
			"min":[
				-0.016739048063755035,
				-0.20552392303943634,
				-0.10892857611179352
			],
			"type":"VEC3"
		},
		{
			"bufferView":11,
			"componentType":5126,
			"count":146,
			"type":"VEC3"
		},
		{
			"bufferView":12,
			"componentType":5126,
			"count":146,
			"type":"VEC2"
		},
		{
			"bufferView":13,
			"componentType":5126,
			"count":146,
			"type":"VEC4"
		},
		{
			"bufferView":14,
			"componentType":5123,
			"count":165,
			"type":"SCALAR"
		}
	],
	"bufferViews":[
		{
			"buffer":0,
			"byteLength":63516,
			"byteOffset":0,
			"target":34962
		},
		{
			"buffer":0,
			"byteLength":63516,
			"byteOffset":63516,
			"target":34962
		},
		{
			"buffer":0,
			"byteLength":42344,
			"byteOffset":127032,
			"target":34962
		},
		{
			"buffer":0,
			"byteLength":84688,
			"byteOffset":169376,
			"target":34962
		},
		{
			"buffer":0,
			"byteLength":12192,
			"byteOffset":254064,
			"target":34963
		},
		{
			"buffer":0,
			"byteLength":33900,
			"byteOffset":266256,
			"target":34962
		},
		{
			"buffer":0,
			"byteLength":33900,
			"byteOffset":300156,
			"target":34962
		},
		{
			"buffer":0,
			"byteLength":22600,
			"byteOffset":334056,
			"target":34962
		},
		{
			"buffer":0,
			"byteLength":45200,
			"byteOffset":356656,
			"target":34962
		},
		{
			"buffer":0,
			"byteLength":5832,
			"byteOffset":401856,
			"target":34963
		},
		{
			"buffer":0,
			"byteLength":1752,
			"byteOffset":407688,
			"target":34962
		},
		{
			"buffer":0,
			"byteLength":1752,
			"byteOffset":409440,
			"target":34962
		},
		{
			"buffer":0,
			"byteLength":1168,
			"byteOffset":411192,
			"target":34962
		},
		{
			"buffer":0,
			"byteLength":2336,
			"byteOffset":412360,
			"target":34962
		},
		{
			"buffer":0,
			"byteLength":330,
			"byteOffset":414696,
			"target":34963
		}
	],
	"samplers":[
		{
			"magFilter":9729,
			"minFilter":9987
		}
	],
	"buffers":[
		{
			"byteLength":415028,
			"uri":"1911-d87b7259068126ffccf6a4dab5558434.bin"
		}
	]
}
