{
	"asset":{
		"generator":"Khronos glTF Blender I/O v4.1.63",
		"version":"2.0"
	},
	"scene":0,
	"scenes":[
		{
			"extras":{
				"blenrig_guide":{
					"state_keyframe_insert_available":0
				},
				"wiggle":{
					"is_rendering":0
				},
				"MustardUI_Settings":{},
				"uuid":"fa3c152b-1ba1-48ef-92ad-ff99a06530cb",
				"assets reported":{},
				"skinify":{
					"connect_mesh":0,
					"connect_parents":0,
					"generate_all":0,
					"thickness":0.800000011920929,
					"finger_thickness":0.25,
					"apply_mod":1,
					"parent_armature":1,
					"sub_level":1
				},
				"flip_fluid":{},
				"flip_fluid_helper":{
					"is_auto_frame_load_cmd_operator_running":0,
					"alembic_output_filepath":"//1911.abc",
					"is_alembic_output_filepath_set":1
				},
				"flip_fluid_material_library":{
					"library_path":"C:\\Users\\User\\AppData\\Roaming\\Blender Foundation\\Blender\\4.1\\scripts\\addons\\flip_fluids_addon\\materials\\material_library"
				},
				"sun_pos_properties":{
					"show_surface":0,
					"show_analemmas":0,
					"show_north":0,
					"latitude":0.0,
					"day_of_year":111,
					"sun_object":{},
					"object_collection":{}
				},
				"fluid_painter":{},
				"scatter_properties":{}
			},
			"name":"Scene",
			"nodes":[
				0,
				1,
				2
			]
		}
	],
	"nodes":[
		{
			"extras":{
				"flip_fluid":{}
			},
			"mesh":0,
			"name":"1911 Body"
		},
		{
			"extras":{
				"flip_fluid":{}
			},
			"mesh":1,
			"name":"1911 Magazine"
		},
		{
			"extras":{
				"flip_fluid":{}
			},
			"mesh":2,
			"name":"1911 Slide"
		}
	],
	"materials":[
		{
			"doubleSided":true,
			"extras":{
				"flip_fluid_material_library":{},
				"mmd_material":{}
			},
			"name":"M1911 Metal",
			"normalTexture":{
				"index":0
			},
			"pbrMetallicRoughness":{
				"baseColorTexture":{
					"index":1
				},
				"metallicRoughnessTexture":{
					"index":2
				}
			}
		},
		{
			"doubleSided":true,
			"extras":{
				"flip_fluid_material_library":{},
				"mmd_material":{}
			},
			"name":"M1911 Handle",
			"normalTexture":{
				"index":3
			},
			"pbrMetallicRoughness":{
				"baseColorTexture":{
					"index":4
				},
				"metallicRoughnessTexture":{
					"index":5
				}
			}
		}
	],
	"meshes":[
		{
			"name":"1911 Body",
			"primitives":[
				{
					"attributes":{
						"POSITION":0,
						"NORMAL":1,
						"TEXCOORD_0":2
					},
					"indices":3,
					"material":0
				},
				{
					"attributes":{
						"POSITION":4,
						"NORMAL":5,
						"TEXCOORD_0":6
					},
					"indices":7,
					"material":1
				}
			]
		},
		{
			"name":"1911 Magazine",
			"primitives":[
				{
					"attributes":{
						"POSITION":8,
						"NORMAL":9,
						"TEXCOORD_0":10
					},
					"indices":11,
					"material":0
				}
			]
		},
		{
			"name":"1911 Slide",
			"primitives":[
				{
					"attributes":{
						"POSITION":12,
						"NORMAL":13,
						"TEXCOORD_0":14
					},
					"indices":15,
					"material":0
				}
			]
		}
	],
	"textures":[
		{
			"sampler":0,
			"source":0
		},
		{
			"sampler":0,
			"source":1
		},
		{
			"sampler":0,
			"source":2
		},
		{
			"sampler":0,
			"source":0
		},
		{
			"sampler":0,
			"source":1
		},
		{
			"sampler":0,
			"source":2
		}
	],
	"images":[
		{
			"mimeType":"image/png",
			"name":"1911 Normal",
			"uri":"../../Models/Blender/1911/1911%20Normal.png"
		},
		{
			"mimeType":"image/png",
			"name":"1911 Diffuse",
			"uri":"../../Models/Blender/1911/1911%20Diffuse.png"
		},
		{
			"mimeType":"image/png",
			"name":"1911 Roughness",
			"uri":"../../Models/Blender/1911/1911%20Roughness.png"
		}
	],
	"accessors":[
		{
			"bufferView":0,
			"componentType":5126,
			"count":1203,
			"max":[
				0.5329999923706055,
				0.17809991538524628,
				0.02938838116824627
			],
			"min":[
				-0.11554648727178574,
				-0.20226417481899261,
				-0.02938838116824627
			],
			"type":"VEC3"
		},
		{
			"bufferView":1,
			"componentType":5126,
			"count":1203,
			"type":"VEC3"
		},
		{
			"bufferView":2,
			"componentType":5126,
			"count":1203,
			"type":"VEC2"
		},
		{
			"bufferView":3,
			"componentType":5123,
			"count":3408,
			"type":"SCALAR"
		},
		{
			"bufferView":4,
			"componentType":5126,
			"count":1836,
			"max":[
				0.0958000123500824,
				0.0910000205039978,
				0.035096000880002975
			],
			"min":[
				-0.07993999123573303,
				-0.1868000030517578,
				-0.035587918013334274
			],
			"type":"VEC3"
		},
		{
			"bufferView":5,
			"componentType":5126,
			"count":1836,
			"type":"VEC3"
		},
		{
			"bufferView":6,
			"componentType":5126,
			"count":1836,
			"type":"VEC2"
		},
		{
			"bufferView":7,
			"componentType":5123,
			"count":9216,
			"type":"SCALAR"
		},
		{
			"bufferView":8,
			"componentType":5126,
			"count":124,
			"max":[
				0.10699786990880966,
				0.11969169229269028,
				0.023585006594657898
			],
			"min":[
				-0.096485935151577,
				-0.2147507667541504,
				-0.023585006594657898
			],
			"type":"VEC3"
		},
		{
			"bufferView":9,
			"componentType":5126,
			"count":124,
			"type":"VEC3"
		},
		{
			"bufferView":10,
			"componentType":5126,
			"count":124,
			"type":"VEC2"
		},
		{
			"bufferView":11,
			"componentType":5123,
			"count":240,
			"type":"SCALAR"
		},
		{
			"bufferView":12,
			"componentType":5126,
			"count":1617,
			"max":[
				0.5188515782356262,
				0.197859987616539,
				0.02690950408577919
			],
			"min":[
				-0.04419999197125435,
				0.08058007806539536,
				-0.026911646127700806
			],
			"type":"VEC3"
		},
		{
			"bufferView":13,
			"componentType":5126,
			"count":1617,
			"type":"VEC3"
		},
		{
			"bufferView":14,
			"componentType":5126,
			"count":1617,
			"type":"VEC2"
		},
		{
			"bufferView":15,
			"componentType":5123,
			"count":6480,
			"type":"SCALAR"
		}
	],
	"bufferViews":[
		{
			"buffer":0,
			"byteLength":14436,
			"byteOffset":0,
			"target":34962
		},
		{
			"buffer":0,
			"byteLength":14436,
			"byteOffset":14436,
			"target":34962
		},
		{
			"buffer":0,
			"byteLength":9624,
			"byteOffset":28872,
			"target":34962
		},
		{
			"buffer":0,
			"byteLength":6816,
			"byteOffset":38496,
			"target":34963
		},
		{
			"buffer":0,
			"byteLength":22032,
			"byteOffset":45312,
			"target":34962
		},
		{
			"buffer":0,
			"byteLength":22032,
			"byteOffset":67344,
			"target":34962
		},
		{
			"buffer":0,
			"byteLength":14688,
			"byteOffset":89376,
			"target":34962
		},
		{
			"buffer":0,
			"byteLength":18432,
			"byteOffset":104064,
			"target":34963
		},
		{
			"buffer":0,
			"byteLength":1488,
			"byteOffset":122496,
			"target":34962
		},
		{
			"buffer":0,
			"byteLength":1488,
			"byteOffset":123984,
			"target":34962
		},
		{
			"buffer":0,
			"byteLength":992,
			"byteOffset":125472,
			"target":34962
		},
		{
			"buffer":0,
			"byteLength":480,
			"byteOffset":126464,
			"target":34963
		},
		{
			"buffer":0,
			"byteLength":19404,
			"byteOffset":126944,
			"target":34962
		},
		{
			"buffer":0,
			"byteLength":19404,
			"byteOffset":146348,
			"target":34962
		},
		{
			"buffer":0,
			"byteLength":12936,
			"byteOffset":165752,
			"target":34962
		},
		{
			"buffer":0,
			"byteLength":12960,
			"byteOffset":178688,
			"target":34963
		}
	],
	"samplers":[
		{
			"magFilter":9729,
			"minFilter":9987
		}
	],
	"buffers":[
		{
			"byteLength":191648,
			"uri":"1911-d87b7259068126ffccf6a4dab5558434.bin"
		}
	]
}
