{
	"asset":{
		"generator":"Khronos glTF Blender I/O v4.1.63",
		"version":"2.0"
	},
	"extensionsUsed":[
		"KHR_materials_specular",
		"KHR_materials_ior"
	],
	"scene":0,
	"scenes":[
		{
			"extras":{
				"blenrig_guide":{
					"state_keyframe_insert_available":0
				},
				"wiggle":{
					"is_rendering":0
				},
				"MustardUI_Settings":{},
				"uuid":"fa3c152b-1ba1-48ef-92ad-ff99a06530cb",
				"assets reported":{},
				"skinify":{
					"connect_mesh":0,
					"connect_parents":0,
					"generate_all":0,
					"thickness":0.800000011920929,
					"finger_thickness":0.25,
					"apply_mod":1,
					"parent_armature":1,
					"sub_level":1
				},
				"flip_fluid":{},
				"flip_fluid_helper":{
					"is_auto_frame_load_cmd_operator_running":0,
					"alembic_output_filepath":"//BuyableDoor.abc",
					"is_alembic_output_filepath_set":1
				},
				"flip_fluid_material_library":{
					"library_path":"C:\\Users\\User\\AppData\\Roaming\\Blender Foundation\\Blender\\4.1\\scripts\\addons\\flip_fluids_addon\\materials\\material_library"
				},
				"sun_pos_properties":{
					"show_surface":0,
					"show_analemmas":0,
					"show_north":0,
					"latitude":0.0,
					"day_of_year":331,
					"sun_object":{},
					"object_collection":{}
				},
				"fluid_painter":{},
				"scatter_properties":{}
			},
			"name":"Scene",
			"nodes":[
				0
			]
		}
	],
	"nodes":[
		{
			"extras":{
				"flip_fluid":{},
				"ant_landscape":{},
				"MeasureGenerator":[
					{
						"measureit_segments":[
							{
								"gltype":1,
								"glpointa":0,
								"glpointb":1,
								"glarrow_a":0,
								"glarrow_b":0,
								"glarrow_s":15,
								"glcolor":[
									0.17299999296665192,
									0.5450000166893005,
									1.0,
									1.0
								],
								"glspace":0.10000000149011612,
								"gltxt":"",
								"glfont_size":14,
								"glfont_align":0,
								"glfont_rotat":0,
								"gltot":0,
								"name":"segment_0"
							},
							{
								"gltype":1,
								"glpointa":1,
								"glpointb":3,
								"glarrow_a":0,
								"glarrow_b":0,
								"glarrow_s":15,
								"glcolor":[
									0.17299999296665192,
									0.5450000166893005,
									1.0,
									1.0
								],
								"glspace":0.10000000149011612,
								"gltxt":"",
								"glfont_size":14,
								"glfont_align":0,
								"glfont_rotat":0,
								"gltot":0,
								"name":"segment_1"
							}
						],
						"measureit_num":2
					}
				]
			},
			"mesh":0,
			"name":"Buyable Door"
		}
	],
	"materials":[
		{
			"doubleSided":true,
			"extensions":{
				"KHR_materials_specular":{
					"specularFactor":0.4000000059604645
				},
				"KHR_materials_ior":{
					"ior":1.4500000476837158
				}
			},
			"extras":{
				"mmd_material":{},
				"flip_fluid_material_library":{}
			},
			"name":"Wood",
			"normalTexture":{
				"index":0
			},
			"pbrMetallicRoughness":{
				"baseColorTexture":{
					"index":1
				},
				"metallicFactor":0.30000001192092896,
				"roughnessFactor":0.5
			}
		}
	],
	"meshes":[
		{
			"name":"Buyable Door",
			"primitives":[
				{
					"attributes":{
						"POSITION":0,
						"NORMAL":1,
						"TEXCOORD_0":2,
						"TEXCOORD_1":3,
						"TANGENT":4
					},
					"indices":5,
					"material":0
				}
			]
		}
	],
	"textures":[
		{
			"sampler":0,
			"source":0
		},
		{
			"sampler":0,
			"source":1
		}
	],
	"images":[
		{
			"mimeType":"image/png",
			"name":"BuyableDoorNormals",
			"uri":"../../Models/Blender/Buyable%20Doors/textures/BuyableDoorNormals.png"
		},
		{
			"mimeType":"image/png",
			"name":"BuyableDoorDiffuse",
			"uri":"../../Models/Blender/Buyable%20Doors/textures/BuyableDoorDiffuse.png"
		}
	],
	"accessors":[
		{
			"bufferView":0,
			"componentType":5126,
			"count":132,
			"max":[
				0.06878860294818878,
				1.250151515007019,
				0.9335201978683472
			],
			"min":[
				-0.07098761200904846,
				-1.2546378374099731,
				-0.9028440713882446
			],
			"type":"VEC3"
		},
		{
			"bufferView":1,
			"componentType":5126,
			"count":132,
			"type":"VEC3"
		},
		{
			"bufferView":2,
			"componentType":5126,
			"count":132,
			"type":"VEC2"
		},
		{
			"bufferView":3,
			"componentType":5126,
			"count":132,
			"type":"VEC2"
		},
		{
			"bufferView":4,
			"componentType":5126,
			"count":132,
			"type":"VEC4"
		},
		{
			"bufferView":5,
			"componentType":5123,
			"count":252,
			"type":"SCALAR"
		}
	],
	"bufferViews":[
		{
			"buffer":0,
			"byteLength":1584,
			"byteOffset":0,
			"target":34962
		},
		{
			"buffer":0,
			"byteLength":1584,
			"byteOffset":1584,
			"target":34962
		},
		{
			"buffer":0,
			"byteLength":1056,
			"byteOffset":3168,
			"target":34962
		},
		{
			"buffer":0,
			"byteLength":1056,
			"byteOffset":4224,
			"target":34962
		},
		{
			"buffer":0,
			"byteLength":2112,
			"byteOffset":5280,
			"target":34962
		},
		{
			"buffer":0,
			"byteLength":504,
			"byteOffset":7392,
			"target":34963
		}
	],
	"samplers":[
		{
			"magFilter":9729,
			"minFilter":9987
		}
	],
	"buffers":[
		{
			"byteLength":7896,
			"uri":"BuyableDoor-fc754e78650a4a473dc146a7c43e83e7.bin"
		}
	]
}
