{
	"asset":{
		"generator":"Khronos glTF Blender I/O v4.1.63",
		"version":"2.0"
	},
	"scene":0,
	"scenes":[
		{
			"extras":{
				"blenrig_guide":{
					"state_keyframe_insert_available":0
				},
				"wiggle":{
					"is_rendering":0
				},
				"MustardUI_Settings":{},
				"uuid":"fa3c152b-1ba1-48ef-92ad-ff99a06530cb",
				"assets reported":{},
				"skinify":{
					"connect_mesh":0,
					"connect_parents":0,
					"generate_all":0,
					"thickness":0.800000011920929,
					"finger_thickness":0.25,
					"apply_mod":1,
					"parent_armature":1,
					"sub_level":1
				},
				"flip_fluid":{},
				"flip_fluid_helper":{
					"is_auto_frame_load_cmd_operator_running":0,
					"alembic_output_filepath":"//Hands.abc",
					"is_alembic_output_filepath_set":1
				},
				"flip_fluid_material_library":{
					"library_path":"C:\\Users\\User\\AppData\\Roaming\\Blender Foundation\\Blender\\4.1\\scripts\\addons\\flip_fluids_addon\\materials\\material_library"
				},
				"sun_pos_properties":{
					"show_surface":0,
					"show_analemmas":0,
					"show_north":0,
					"latitude":0.0,
					"day_of_year":350,
					"sun_object":{},
					"object_collection":{}
				},
				"fluid_painter":{},
				"measureit_gl_precision":5,
				"assets used":{
					"dc62642d-8060-4e35-a90a-f5fc10004868":{
						"addonVersion":"3.14.0",
						"assetBaseId":"dc62642d-8060-4e35-a90a-f5fc10004868",
						"assetType":"material",
						"author":{
							"aboutMe":"Passionate 3D artist.\r\nI love creating models in Blender. Blender is my hobby, not full time job.",
							"aboutMeUrl":"",
							"avatar128":"/avatar-redirect/ac731900-5dc5-4a69-9a4f-ab897cc007ba/128/",
							"firstName":"ydd",
							"fullName":"ydd 3D",
							"gravatarHash":"d53d719bf329b8bc9a0370a905d13613",
							"id":"298039",
							"lastName":"3D"
						},
						"available_resolutions":[
							512,
							1024,
							2048,
							4096
						],
						"canDownload":true,
						"canDownloadError":true,
						"category":"fabric",
						"created":"2025-04-26T13:05:59.400899+02:00",
						"description":"Simple desert camouflage fabric for your army scenes",
						"dictParameters":{
							"addons":true,
							"animated":false,
							"engine":"cycles",
							"joinBlenderkitDiscounts":true,
							"materialStyle":"realistic",
							"megapixels":80,
							"nodeCount":14,
							"pbrType":"metallic",
							"procedural":false,
							"purePbr":true,
							"sexualizedContent":false,
							"shaders":[
								"[principled]"
							],
							"textureCount":5,
							"textureResolutionMax":4096,
							"textureResolutionMin":4096,
							"textureSizeMeters":1,
							"uv":false
						},
						"displayName":"Camo fabric",
						"downloaded":0,
						"files":[
							{
								"created":"2025-04-26T13:06:36.620572+02:00",
								"downloadUrl":"https://www.blenderkit.com/api/v1/downloads/655284/",
								"fileThumbnail":"",
								"fileThumbnailLarge":"",
								"fileType":"blend",
								"filename":"assets/29a3b94e4c274a88b3f65d63e9e9918d/files/blend_ccdffebd-ecad-49e2-8f6c-bc882c35dbe0.blend",
								"modified":"2025-04-26T13:06:36.620584+02:00",
								"resolution":0,
								"url":""
							},
							{
								"created":"2025-04-28T14:09:49.954973+02:00",
								"downloadUrl":"https://www.blenderkit.com/api/v1/downloads/656420/",
								"fileThumbnail":"",
								"fileThumbnailLarge":"",
								"fileType":"resolution_0_5K",
								"filename":"assets/29a3b94e4c274a88b3f65d63e9e9918d/files/resolution_0_5K_f4337f3a-7ede-4979-855f-2f047cca1a47.blend",
								"modified":"2025-04-28T14:09:49.954986+02:00",
								"resolution":0,
								"url":""
							},
							{
								"created":"2025-04-28T14:09:49.097047+02:00",
								"downloadUrl":"https://www.blenderkit.com/api/v1/downloads/656419/",
								"fileThumbnail":"",
								"fileThumbnailLarge":"",
								"fileType":"resolution_1K",
								"filename":"assets/29a3b94e4c274a88b3f65d63e9e9918d/files/resolution_1K_0fb24fe8-dc12-4e43-8419-b817c3ebca59.blend",
								"modified":"2025-04-28T14:09:49.097057+02:00",
								"resolution":0,
								"url":""
							},
							{
								"created":"2025-04-28T14:09:48.334319+02:00",
								"downloadUrl":"https://www.blenderkit.com/api/v1/downloads/656418/",
								"fileThumbnail":"",
								"fileThumbnailLarge":"",
								"fileType":"resolution_2K",
								"filename":"assets/29a3b94e4c274a88b3f65d63e9e9918d/files/resolution_2K_9ceaf1c2-e099-427c-88e9-b7ded0cefed2.blend",
								"modified":"2025-04-28T14:09:48.334335+02:00",
								"resolution":0,
								"url":"https://assets.blenderkit.com/assets/29a3b94e4c274a88b3f65d63e9e9918d/files/resolution_2K_9ceaf1c2-e099-427c-88e9-b7ded0cefed2.blend?verify=1765808174-Bi0HDXdkvjZ04%2FmKKsmQsP%2FS%2FFp2EmyZ%2BhZaoG2zAKI%3D",
								"file_name":"C:\\Users\\User\\blenderkit_data\\materials\\camo-fabric_29a3b94e-4c27-4a88-b3f6-5d63e9e9918d\\camo-fabric_2K_9ceaf1c2-e099-427c-88e9-b7ded0cefed2.blend"
							},
							{
								"created":"2025-04-28T14:09:47.247790+02:00",
								"downloadUrl":"https://www.blenderkit.com/api/v1/downloads/656417/",
								"fileThumbnail":"",
								"fileThumbnailLarge":"",
								"fileType":"resolution_4K",
								"filename":"assets/29a3b94e4c274a88b3f65d63e9e9918d/files/resolution_4K_65937b33-4703-4c02-81ca-38060e338329.blend",
								"modified":"2025-04-28T14:09:47.247803+02:00",
								"resolution":0,
								"url":""
							},
							{
								"created":"2025-04-26T13:06:06.907114+02:00",
								"downloadUrl":"https://www.blenderkit.com/api/v1/downloads/655283/",
								"fileThumbnail":"https://public.blenderkit.com/thumbnails/assets/29a3b94e4c274a88b3f65d63e9e9918d/files/thumbnail_c813e47e-2e65-4ba7-aca9-618e612c4d9c.png.96x96_q85_crop-%2C.png",
								"fileThumbnailLarge":"https://public.blenderkit.com/thumbnails/assets/29a3b94e4c274a88b3f65d63e9e9918d/files/thumbnail_c813e47e-2e65-4ba7-aca9-618e612c4d9c.png.1024x1024_q85_crop-%2C.png",
								"fileType":"thumbnail",
								"filename":"assets/29a3b94e4c274a88b3f65d63e9e9918d/files/thumbnail_c813e47e-2e65-4ba7-aca9-618e612c4d9c.png",
								"modified":"2025-04-26T13:06:06.907131+02:00",
								"resolution":0,
								"url":""
							}
						],
						"filesSize":98207,
						"id":"29a3b94e-4c27-4a88-b3f6-5d63e9e9918d",
						"isFree":true,
						"isPrivate":false,
						"lastBlendUpload":"2025-04-26T11:06:36.620572+00:00",
						"lastGltfUpload":"",
						"lastResolutionUpload":"2025-04-28T12:09:49.954973+00:00",
						"lastThumbnailUpload":"2025-04-26T11:06:06.907114+00:00",
						"lastUserInteraction":"2025-04-26T13:06:37.152006+02:00",
						"lastVideoUpload":"",
						"lastZipFileUpload":"",
						"license":"royalty_free",
						"max_resolution":4096,
						"name":"Camo fabric",
						"pk":144134,
						"ratingsAverage":{
							"bookmarks":0.9230769230769231,
							"quality":9.5,
							"virtualPrice":null,
							"workingHours":4
						},
						"ratingsCount":{
							"bookmarks":26,
							"quality":2,
							"virtualPrice":0,
							"workingHours":2
						},
						"ratingsMedian":{
							"bookmarks":1,
							"quality":9.5,
							"virtualPrice":null,
							"workingHours":4
						},
						"ratingsSum":{
							"bookmarks":24,
							"quality":19,
							"score":380,
							"virtualPrice":null,
							"workingHours":8
						},
						"score":380,
						"showMarketingLabels":true,
						"sourceAppName":"blender",
						"sourceAppVersion":"4.2.4",
						"tags":[
							"camo",
							"camouflage",
							"desert",
							"army",
							"military",
							"fabric"
						],
						"texture_size_meters":1,
						"thumbnail":"thumbnail_c813e47e-2e65-4ba7-aca9-618e612c4d9c.png.512x512_q85_crop-%2C.png.webp",
						"thumbnailLargeUrl":"https://public.blenderkit.com/thumbnails/assets/29a3b94e4c274a88b3f65d63e9e9918d/files/thumbnail_c813e47e-2e65-4ba7-aca9-618e612c4d9c.png.1024x1024_q85_crop-%2C.png",
						"thumbnailLargeUrlNonsquared":"https://public.blenderkit.com/thumbnails/assets/29a3b94e4c274a88b3f65d63e9e9918d/files/thumbnail_c813e47e-2e65-4ba7-aca9-618e612c4d9c.png.1024x1024_q85.png",
						"thumbnailLargeUrlNonsquaredWebp":"https://public.blenderkit.com/thumbnails/assets/29a3b94e4c274a88b3f65d63e9e9918d/files/thumbnail_c813e47e-2e65-4ba7-aca9-618e612c4d9c.png.1024x1024_q85.png.webp?webp_generated=1745842265",
						"thumbnailLargeUrlWebp":"https://public.blenderkit.com/thumbnails/assets/29a3b94e4c274a88b3f65d63e9e9918d/files/thumbnail_c813e47e-2e65-4ba7-aca9-618e612c4d9c.png.1024x1024_q85_crop-%2C.png.webp?webp_generated=1745842265",
						"thumbnailMiddleUrl":"https://public.blenderkit.com/thumbnails/assets/29a3b94e4c274a88b3f65d63e9e9918d/files/thumbnail_c813e47e-2e65-4ba7-aca9-618e612c4d9c.png.512x512_q85_crop-%2C.png",
						"thumbnailMiddleUrlNonsquared":"https://public.blenderkit.com/thumbnails/assets/29a3b94e4c274a88b3f65d63e9e9918d/files/thumbnail_c813e47e-2e65-4ba7-aca9-618e612c4d9c.png.512x512_q85.png",
						"thumbnailMiddleUrlNonsquaredWebp":"https://public.blenderkit.com/thumbnails/assets/29a3b94e4c274a88b3f65d63e9e9918d/files/thumbnail_c813e47e-2e65-4ba7-aca9-618e612c4d9c.png.512x512_q85.png.webp?webp_generated=1745842265",
						"thumbnailMiddleUrlWebp":"https://public.blenderkit.com/thumbnails/assets/29a3b94e4c274a88b3f65d63e9e9918d/files/thumbnail_c813e47e-2e65-4ba7-aca9-618e612c4d9c.png.512x512_q85_crop-%2C.png.webp?webp_generated=1745842265",
						"thumbnailSmallUrl":"https://public.blenderkit.com/thumbnails/assets/29a3b94e4c274a88b3f65d63e9e9918d/files/thumbnail_c813e47e-2e65-4ba7-aca9-618e612c4d9c.png.256x256_q85_crop-%2C.png",
						"thumbnailSmallUrlNonsquared":"https://public.blenderkit.com/thumbnails/assets/29a3b94e4c274a88b3f65d63e9e9918d/files/thumbnail_c813e47e-2e65-4ba7-aca9-618e612c4d9c.png.256x256_q85.png",
						"thumbnailSmallUrlNonsquaredWebp":"https://public.blenderkit.com/thumbnails/assets/29a3b94e4c274a88b3f65d63e9e9918d/files/thumbnail_c813e47e-2e65-4ba7-aca9-618e612c4d9c.png.256x256_q85.png.webp?webp_generated=1745842265",
						"thumbnailSmallUrlWebp":"https://public.blenderkit.com/thumbnails/assets/29a3b94e4c274a88b3f65d63e9e9918d/files/thumbnail_c813e47e-2e65-4ba7-aca9-618e612c4d9c.png.256x256_q85_crop-%2C.png.webp?webp_generated=1745842265",
						"thumbnailXlargeUrl":"https://public.blenderkit.com/thumbnails/assets/29a3b94e4c274a88b3f65d63e9e9918d/files/thumbnail_c813e47e-2e65-4ba7-aca9-618e612c4d9c.png.2048x2048_q85_crop-%2C.png",
						"thumbnailXlargeUrlNonsquared":"https://public.blenderkit.com/thumbnails/assets/29a3b94e4c274a88b3f65d63e9e9918d/files/thumbnail_c813e47e-2e65-4ba7-aca9-618e612c4d9c.png.2048x2048_q85.png",
						"thumbnailXlargeUrlNonsquaredWebp":"https://public.blenderkit.com/thumbnails/assets/29a3b94e4c274a88b3f65d63e9e9918d/files/thumbnail_c813e47e-2e65-4ba7-aca9-618e612c4d9c.png.2048x2048_q85.png.webp?webp_generated=1745842265",
						"thumbnailXlargeUrlWebp":"https://public.blenderkit.com/thumbnails/assets/29a3b94e4c274a88b3f65d63e9e9918d/files/thumbnail_c813e47e-2e65-4ba7-aca9-618e612c4d9c.png.2048x2048_q85_crop-%2C.png.webp?webp_generated=1745842265",
						"thumbnail_small":"thumbnail_c813e47e-2e65-4ba7-aca9-618e612c4d9c.png.256x256_q85_crop-%2C.png.webp",
						"tooltip_data":{
							"aname":"Camo fabric",
							"author_text":"by ydd 3D",
							"quality":"10"
						},
						"url":"https://www.blenderkit.com/api/v1/assets/29a3b94e-4c27-4a88-b3f6-5d63e9e9918d/",
						"verificationStatus":"validated",
						"versionNumber":1,
						"webpGeneratedTimestamp":1745842265,
						"resolution":"resolution_2K"
					},
					"399dc409-5625-4760-a256-7a7732492bd3":{
						"addonVersion":"3.9.0",
						"assetBaseId":"399dc409-5625-4760-a256-7a7732492bd3",
						"assetType":"material",
						"author":{
							"aboutMe":"I am a Blender animator, modeller as well as a digital imaging specialist (Photoshop, since 1998).",
							"aboutMeUrl":"https://www.turningturnip.co.uk",
							"avatar128":"/avatar-redirect/f27f13f1-fabb-4c68-a841-9fda3c707246/128/",
							"firstName":"James",
							"fullName":"James Middleton",
							"gravatarHash":"08d08063b99022fda90e8477a0b502f5",
							"id":"33950",
							"lastName":"Middleton"
						},
						"available_resolutions":[
							512,
							1024,
							2048
						],
						"canDownload":true,
						"canDownloadError":true,
						"category":"leather",
						"created":"2024-07-15T09:37:19.167090+02:00",
						"description":"Black Leather. Leather 2K",
						"dictParameters":{
							"addons":true,
							"condition":"new",
							"engine":"cycles",
							"imageAltTextGen4v":"Black leather fabric PBR material for 3D rendering in Blender and other applications, showcasing detailed texture and tiling.",
							"joinBlenderkitDiscounts":true,
							"materialStyle":"realistic",
							"megapixels":12,
							"nodeCount":11,
							"pbrType":"metallic",
							"procedural":false,
							"purePbr":true,
							"sexualizedContent":false,
							"shaders":[
								"principled"
							],
							"textureCount":4,
							"textureResolutionMax":2048,
							"textureResolutionMin":512,
							"textureSizeMeters":0.25,
							"uv":false
						},
						"displayName":"Black Leather",
						"downloaded":0,
						"files":[
							{
								"created":"2024-07-15T09:38:53.923356+02:00",
								"downloadUrl":"https://www.blenderkit.com/api/v1/downloads/422244/",
								"fileThumbnail":"",
								"fileThumbnailLarge":"",
								"fileType":"blend",
								"filename":"assets/22296dc9b63a4f1d8ad84137897972b7/files/blend_e86f83aa-7b8e-47bd-8483-2054e80ab734.blend",
								"modified":"2025-02-13T16:24:07.019662+01:00",
								"resolution":0,
								"url":""
							},
							{
								"created":"2024-07-16T06:38:24.767887+02:00",
								"downloadUrl":"https://www.blenderkit.com/api/v1/downloads/423034/",
								"fileThumbnail":"",
								"fileThumbnailLarge":"",
								"fileType":"resolution_0_5K",
								"filename":"assets/22296dc9b63a4f1d8ad84137897972b7/files/resolution_0_5K_5198b593-7152-4355-ab08-cd0d717c6dea.blend",
								"modified":"2025-02-13T16:24:07.037856+01:00",
								"resolution":0,
								"url":""
							},
							{
								"created":"2024-07-16T06:38:23.694342+02:00",
								"downloadUrl":"https://www.blenderkit.com/api/v1/downloads/423033/",
								"fileThumbnail":"",
								"fileThumbnailLarge":"",
								"fileType":"resolution_1K",
								"filename":"assets/22296dc9b63a4f1d8ad84137897972b7/files/resolution_1K_37d60aa1-227d-4c3f-9f33-a9e7555f7ca6.blend",
								"modified":"2025-02-13T16:24:07.058030+01:00",
								"resolution":0,
								"url":""
							},
							{
								"created":"2024-07-16T06:38:22.509815+02:00",
								"downloadUrl":"https://www.blenderkit.com/api/v1/downloads/423032/",
								"fileThumbnail":"",
								"fileThumbnailLarge":"",
								"fileType":"resolution_2K",
								"filename":"assets/22296dc9b63a4f1d8ad84137897972b7/files/resolution_2K_40a97d00-76c8-46a1-b2d7-91980c7ffba5.blend",
								"modified":"2025-02-13T16:24:07.074548+01:00",
								"resolution":0,
								"url":"https://assets.blenderkit.com/assets/22296dc9b63a4f1d8ad84137897972b7/files/resolution_2K_40a97d00-76c8-46a1-b2d7-91980c7ffba5.blend?verify=1765808299-GJ01IyAR8gX04fopnj1vP9heOXiKr89rBkh%2BMIptaOI%3D",
								"file_name":"D:\\Projects\\Godot Projects\\CodZombieGodot\\Models\\Blender\\Hands\\assets\\materials\\leather-fabric-b_22296dc9-b63a-4f1d-8ad8-4137897972b7\\leather-fabric-black-70_2K_40a97d00-76c8-46a1-b2d7-91980c7ffba5.blend"
							},
							{
								"created":"2024-07-15T09:38:25.831380+02:00",
								"downloadUrl":"https://www.blenderkit.com/api/v1/downloads/422239/",
								"fileThumbnail":"https://public.blenderkit.com/thumbnails/assets/22296dc9b63a4f1d8ad84137897972b7/files/thumbnail_6a6a9cef-9212-43ed-b155-7460f17b06f0.png.96x96_q85_crop-%2C.png",
								"fileThumbnailLarge":"https://public.blenderkit.com/thumbnails/assets/22296dc9b63a4f1d8ad84137897972b7/files/thumbnail_6a6a9cef-9212-43ed-b155-7460f17b06f0.png.1024x1024_q85_crop-%2C.png",
								"fileType":"thumbnail",
								"filename":"assets/22296dc9b63a4f1d8ad84137897972b7/files/thumbnail_6a6a9cef-9212-43ed-b155-7460f17b06f0.png",
								"modified":"2025-02-13T16:24:07.090823+01:00",
								"resolution":0,
								"url":""
							}
						],
						"filesSize":21153,
						"id":"22296dc9-b63a-4f1d-8ad8-4137897972b7",
						"isFree":true,
						"isPrivate":false,
						"lastBlendUpload":"2024-07-15T07:38:53.923356+00:00",
						"lastGltfUpload":"",
						"lastResolutionUpload":"2024-07-16T04:38:24.767887+00:00",
						"lastThumbnailUpload":"2024-07-15T07:38:25.831380+00:00",
						"lastUserInteraction":"2024-07-15T09:38:54.312404+02:00",
						"lastVideoUpload":"",
						"lastZipFileUpload":"",
						"license":"royalty_free",
						"max_resolution":2048,
						"name":"Leather Fabric - Black 70",
						"pk":99989,
						"ratingsAverage":{
							"bookmarks":0.9659574468085106,
							"quality":9,
							"virtualPrice":null,
							"workingHours":5
						},
						"ratingsCount":{
							"bookmarks":470,
							"quality":3,
							"virtualPrice":0,
							"workingHours":3
						},
						"ratingsMedian":{
							"bookmarks":1,
							"quality":9,
							"virtualPrice":null,
							"workingHours":5
						},
						"ratingsSum":{
							"bookmarks":454,
							"quality":27,
							"score":450,
							"virtualPrice":null,
							"workingHours":10.5
						},
						"score":450,
						"showMarketingLabels":true,
						"sourceAppName":"blender",
						"sourceAppVersion":"4.1.1",
						"tags":[
							"leather",
							"black"
						],
						"texture_size_meters":0.25,
						"thumbnail":"thumbnail_6a6a9cef-9212-43ed-b155-7460f17b06f0.png.512x512_q85_crop-%2C.png.webp",
						"thumbnailLargeUrl":"https://public.blenderkit.com/thumbnails/assets/22296dc9b63a4f1d8ad84137897972b7/files/thumbnail_6a6a9cef-9212-43ed-b155-7460f17b06f0.png.1024x1024_q85_crop-%2C.png",
						"thumbnailLargeUrlNonsquared":"https://public.blenderkit.com/thumbnails/assets/22296dc9b63a4f1d8ad84137897972b7/files/thumbnail_6a6a9cef-9212-43ed-b155-7460f17b06f0.png.1024x1024_q85.png",
						"thumbnailLargeUrlNonsquaredWebp":"https://public.blenderkit.com/thumbnails/assets/22296dc9b63a4f1d8ad84137897972b7/files/thumbnail_6a6a9cef-9212-43ed-b155-7460f17b06f0.png.1024x1024_q85.png.webp?webp_generated=1739460250",
						"thumbnailLargeUrlWebp":"https://public.blenderkit.com/thumbnails/assets/22296dc9b63a4f1d8ad84137897972b7/files/thumbnail_6a6a9cef-9212-43ed-b155-7460f17b06f0.png.1024x1024_q85_crop-%2C.png.webp?webp_generated=1739460250",
						"thumbnailMiddleUrl":"https://public.blenderkit.com/thumbnails/assets/22296dc9b63a4f1d8ad84137897972b7/files/thumbnail_6a6a9cef-9212-43ed-b155-7460f17b06f0.png.512x512_q85_crop-%2C.png",
						"thumbnailMiddleUrlNonsquared":"https://public.blenderkit.com/thumbnails/assets/22296dc9b63a4f1d8ad84137897972b7/files/thumbnail_6a6a9cef-9212-43ed-b155-7460f17b06f0.png.512x512_q85.png",
						"thumbnailMiddleUrlNonsquaredWebp":"https://public.blenderkit.com/thumbnails/assets/22296dc9b63a4f1d8ad84137897972b7/files/thumbnail_6a6a9cef-9212-43ed-b155-7460f17b06f0.png.512x512_q85.png.webp?webp_generated=1739460250",
						"thumbnailMiddleUrlWebp":"https://public.blenderkit.com/thumbnails/assets/22296dc9b63a4f1d8ad84137897972b7/files/thumbnail_6a6a9cef-9212-43ed-b155-7460f17b06f0.png.512x512_q85_crop-%2C.png.webp?webp_generated=1739460250",
						"thumbnailSmallUrl":"https://public.blenderkit.com/thumbnails/assets/22296dc9b63a4f1d8ad84137897972b7/files/thumbnail_6a6a9cef-9212-43ed-b155-7460f17b06f0.png.256x256_q85_crop-%2C.png",
						"thumbnailSmallUrlNonsquared":"https://public.blenderkit.com/thumbnails/assets/22296dc9b63a4f1d8ad84137897972b7/files/thumbnail_6a6a9cef-9212-43ed-b155-7460f17b06f0.png.256x256_q85.png",
						"thumbnailSmallUrlNonsquaredWebp":"https://public.blenderkit.com/thumbnails/assets/22296dc9b63a4f1d8ad84137897972b7/files/thumbnail_6a6a9cef-9212-43ed-b155-7460f17b06f0.png.256x256_q85.png.webp?webp_generated=1739460250",
						"thumbnailSmallUrlWebp":"https://public.blenderkit.com/thumbnails/assets/22296dc9b63a4f1d8ad84137897972b7/files/thumbnail_6a6a9cef-9212-43ed-b155-7460f17b06f0.png.256x256_q85_crop-%2C.png.webp?webp_generated=1739460250",
						"thumbnailXlargeUrl":"https://public.blenderkit.com/thumbnails/assets/22296dc9b63a4f1d8ad84137897972b7/files/thumbnail_6a6a9cef-9212-43ed-b155-7460f17b06f0.png.2048x2048_q85_crop-%2C.png",
						"thumbnailXlargeUrlNonsquared":"https://public.blenderkit.com/thumbnails/assets/22296dc9b63a4f1d8ad84137897972b7/files/thumbnail_6a6a9cef-9212-43ed-b155-7460f17b06f0.png.2048x2048_q85.png",
						"thumbnailXlargeUrlNonsquaredWebp":"https://public.blenderkit.com/thumbnails/assets/22296dc9b63a4f1d8ad84137897972b7/files/thumbnail_6a6a9cef-9212-43ed-b155-7460f17b06f0.png.2048x2048_q85.png.webp?webp_generated=1739460250",
						"thumbnailXlargeUrlWebp":"https://public.blenderkit.com/thumbnails/assets/22296dc9b63a4f1d8ad84137897972b7/files/thumbnail_6a6a9cef-9212-43ed-b155-7460f17b06f0.png.2048x2048_q85_crop-%2C.png.webp?webp_generated=1739460250",
						"thumbnail_small":"thumbnail_6a6a9cef-9212-43ed-b155-7460f17b06f0.png.256x256_q85_crop-%2C.png.webp",
						"tooltip_data":{
							"aname":"Black Leather",
							"author_text":"by James Middleton",
							"quality":"9"
						},
						"url":"https://www.blenderkit.com/api/v1/assets/22296dc9-b63a-4f1d-8ad8-4137897972b7/",
						"verificationStatus":"validated",
						"versionNumber":1,
						"webpGeneratedTimestamp":1739460250,
						"resolution":"resolution_2K"
					}
				},
				"scatter_properties":{},
				"measureit_debug":0
			},
			"name":"Scene",
			"nodes":[
				3
			]
		}
	],
	"nodes":[
		{
			"name":"Bone",
			"rotation":[
				-0.7071067690849304,
				8.429369557916289e-08,
				-8.429369557916289e-08,
				0.7071067690849304
			],
			"translation":[
				-0.4000000059604645,
				0,
				0.10000000894069672
			]
		},
		{
			"name":"Bone.001",
			"rotation":[
				-0.7071067690849304,
				8.429369557916289e-08,
				-8.429369557916289e-08,
				0.7071067690849304
			],
			"translation":[
				0.4000000059604645,
				0,
				0.10000000894069672
			]
		},
		{
			"extras":{
				"flip_fluid":{},
				"ant_landscape":{},
				"MeasureGenerator":[
					{
						"measureit_segments":[
							{
								"gltype":1,
								"glpointa":3,
								"glpointb":1,
								"glarrow_a":0,
								"glarrow_b":0,
								"glarrow_s":15,
								"glcolor":[
									0.17299999296665192,
									0.5450000166893005,
									1.0,
									1.0
								],
								"glspace":0.10000000149011612,
								"gltxt":"",
								"glfont_size":14,
								"glfont_align":0,
								"glfont_rotat":0,
								"gltot":0,
								"name":"segment_0"
							}
						],
						"measureit_num":1
					}
				]
			},
			"mesh":0,
			"name":"Hands",
			"skin":0
		},
		{
			"children":[
				2,
				0,
				1
			],
			"extras":{
				"flip_fluid":{},
				"ant_landscape":{},
				"wiggle_enable":0
			},
			"name":"Hands Rig"
		}
	],
	"materials":[
		{
			"doubleSided":true,
			"extras":{
				"blenderkit":{
					"category":7,
					"subcategory":13,
					"name":"Camo fabric",
					"name_changed":1,
					"name_old":"Camo fabric",
					"pbr":1,
					"thumbnail_generator_type":3,
					"thumbnail_resolution":3,
					"adaptive_subdivision":1,
					"thumbnail_samples":80,
					"thumbnail":"//camo-fabric_0001.png",
					"has_thumbnail":1,
					"thumbnail_generating_state":"",
					"is_generating_thumbnail":0,
					"description":"Simple desert camouflage fabric for your army scenes",
					"tags":"camo, camouflage, desert, army, military, fabric",
					"texture_resolution_max":4096,
					"texture_resolution_min":4096,
					"texture_count":5,
					"node_count":14,
					"total_megapixels":80,
					"is_procedural":0,
					"shaders":"principled, ",
					"report":"",
					"asset_base_id":"dc62642d-8060-4e35-a90a-f5fc10004868",
					"id":"29a3b94e-4c27-4a88-b3f6-5d63e9e9918d",
					"uploading":0
				},
				"asset_data":{
					"addonVersion":"3.14.0",
					"assetBaseId":"dc62642d-8060-4e35-a90a-f5fc10004868",
					"assetType":"material",
					"author":{
						"aboutMe":"Passionate 3D artist.\r\nI love creating models in Blender. Blender is my hobby, not full time job.",
						"aboutMeUrl":"",
						"avatar128":"/avatar-redirect/ac731900-5dc5-4a69-9a4f-ab897cc007ba/128/",
						"firstName":"ydd",
						"fullName":"ydd 3D",
						"gravatarHash":"d53d719bf329b8bc9a0370a905d13613",
						"id":"298039",
						"lastName":"3D"
					},
					"available_resolutions":[
						512,
						1024,
						2048,
						4096
					],
					"canDownload":true,
					"canDownloadError":true,
					"category":"fabric",
					"created":"2025-04-26T13:05:59.400899+02:00",
					"description":"Simple desert camouflage fabric for your army scenes",
					"dictParameters":{
						"addons":true,
						"animated":false,
						"engine":"cycles",
						"joinBlenderkitDiscounts":true,
						"materialStyle":"realistic",
						"megapixels":80,
						"nodeCount":14,
						"pbrType":"metallic",
						"procedural":false,
						"purePbr":true,
						"sexualizedContent":false,
						"shaders":[
							"[principled]"
						],
						"textureCount":5,
						"textureResolutionMax":4096,
						"textureResolutionMin":4096,
						"textureSizeMeters":1,
						"uv":false
					},
					"displayName":"Camo fabric",
					"downloaded":0,
					"files":[
						{
							"created":"2025-04-26T13:06:36.620572+02:00",
							"downloadUrl":"https://www.blenderkit.com/api/v1/downloads/655284/",
							"fileThumbnail":"",
							"fileThumbnailLarge":"",
							"fileType":"blend",
							"filename":"assets/29a3b94e4c274a88b3f65d63e9e9918d/files/blend_ccdffebd-ecad-49e2-8f6c-bc882c35dbe0.blend",
							"modified":"2025-04-26T13:06:36.620584+02:00",
							"resolution":0,
							"url":""
						},
						{
							"created":"2025-04-28T14:09:49.954973+02:00",
							"downloadUrl":"https://www.blenderkit.com/api/v1/downloads/656420/",
							"fileThumbnail":"",
							"fileThumbnailLarge":"",
							"fileType":"resolution_0_5K",
							"filename":"assets/29a3b94e4c274a88b3f65d63e9e9918d/files/resolution_0_5K_f4337f3a-7ede-4979-855f-2f047cca1a47.blend",
							"modified":"2025-04-28T14:09:49.954986+02:00",
							"resolution":0,
							"url":""
						},
						{
							"created":"2025-04-28T14:09:49.097047+02:00",
							"downloadUrl":"https://www.blenderkit.com/api/v1/downloads/656419/",
							"fileThumbnail":"",
							"fileThumbnailLarge":"",
							"fileType":"resolution_1K",
							"filename":"assets/29a3b94e4c274a88b3f65d63e9e9918d/files/resolution_1K_0fb24fe8-dc12-4e43-8419-b817c3ebca59.blend",
							"modified":"2025-04-28T14:09:49.097057+02:00",
							"resolution":0,
							"url":""
						},
						{
							"created":"2025-04-28T14:09:48.334319+02:00",
							"downloadUrl":"https://www.blenderkit.com/api/v1/downloads/656418/",
							"fileThumbnail":"",
							"fileThumbnailLarge":"",
							"fileType":"resolution_2K",
							"filename":"assets/29a3b94e4c274a88b3f65d63e9e9918d/files/resolution_2K_9ceaf1c2-e099-427c-88e9-b7ded0cefed2.blend",
							"modified":"2025-04-28T14:09:48.334335+02:00",
							"resolution":0,
							"url":"https://assets.blenderkit.com/assets/29a3b94e4c274a88b3f65d63e9e9918d/files/resolution_2K_9ceaf1c2-e099-427c-88e9-b7ded0cefed2.blend?verify=1765808174-Bi0HDXdkvjZ04%2FmKKsmQsP%2FS%2FFp2EmyZ%2BhZaoG2zAKI%3D",
							"file_name":"C:\\Users\\User\\blenderkit_data\\materials\\camo-fabric_29a3b94e-4c27-4a88-b3f6-5d63e9e9918d\\camo-fabric_2K_9ceaf1c2-e099-427c-88e9-b7ded0cefed2.blend"
						},
						{
							"created":"2025-04-28T14:09:47.247790+02:00",
							"downloadUrl":"https://www.blenderkit.com/api/v1/downloads/656417/",
							"fileThumbnail":"",
							"fileThumbnailLarge":"",
							"fileType":"resolution_4K",
							"filename":"assets/29a3b94e4c274a88b3f65d63e9e9918d/files/resolution_4K_65937b33-4703-4c02-81ca-38060e338329.blend",
							"modified":"2025-04-28T14:09:47.247803+02:00",
							"resolution":0,
							"url":""
						},
						{
							"created":"2025-04-26T13:06:06.907114+02:00",
							"downloadUrl":"https://www.blenderkit.com/api/v1/downloads/655283/",
							"fileThumbnail":"https://public.blenderkit.com/thumbnails/assets/29a3b94e4c274a88b3f65d63e9e9918d/files/thumbnail_c813e47e-2e65-4ba7-aca9-618e612c4d9c.png.96x96_q85_crop-%2C.png",
							"fileThumbnailLarge":"https://public.blenderkit.com/thumbnails/assets/29a3b94e4c274a88b3f65d63e9e9918d/files/thumbnail_c813e47e-2e65-4ba7-aca9-618e612c4d9c.png.1024x1024_q85_crop-%2C.png",
							"fileType":"thumbnail",
							"filename":"assets/29a3b94e4c274a88b3f65d63e9e9918d/files/thumbnail_c813e47e-2e65-4ba7-aca9-618e612c4d9c.png",
							"modified":"2025-04-26T13:06:06.907131+02:00",
							"resolution":0,
							"url":""
						}
					],
					"filesSize":98207,
					"id":"29a3b94e-4c27-4a88-b3f6-5d63e9e9918d",
					"isFree":true,
					"isPrivate":false,
					"lastBlendUpload":"2025-04-26T11:06:36.620572+00:00",
					"lastGltfUpload":"",
					"lastResolutionUpload":"2025-04-28T12:09:49.954973+00:00",
					"lastThumbnailUpload":"2025-04-26T11:06:06.907114+00:00",
					"lastUserInteraction":"2025-04-26T13:06:37.152006+02:00",
					"lastVideoUpload":"",
					"lastZipFileUpload":"",
					"license":"royalty_free",
					"max_resolution":4096,
					"name":"Camo fabric",
					"pk":144134,
					"ratingsAverage":{
						"bookmarks":0.9230769230769231,
						"quality":9.5,
						"virtualPrice":null,
						"workingHours":4
					},
					"ratingsCount":{
						"bookmarks":26,
						"quality":2,
						"virtualPrice":0,
						"workingHours":2
					},
					"ratingsMedian":{
						"bookmarks":1,
						"quality":9.5,
						"virtualPrice":null,
						"workingHours":4
					},
					"ratingsSum":{
						"bookmarks":24,
						"quality":19,
						"score":380,
						"virtualPrice":null,
						"workingHours":8
					},
					"score":380,
					"showMarketingLabels":true,
					"sourceAppName":"blender",
					"sourceAppVersion":"4.2.4",
					"tags":[
						"camo",
						"camouflage",
						"desert",
						"army",
						"military",
						"fabric"
					],
					"texture_size_meters":1,
					"thumbnail":"thumbnail_c813e47e-2e65-4ba7-aca9-618e612c4d9c.png.512x512_q85_crop-%2C.png.webp",
					"thumbnailLargeUrl":"https://public.blenderkit.com/thumbnails/assets/29a3b94e4c274a88b3f65d63e9e9918d/files/thumbnail_c813e47e-2e65-4ba7-aca9-618e612c4d9c.png.1024x1024_q85_crop-%2C.png",
					"thumbnailLargeUrlNonsquared":"https://public.blenderkit.com/thumbnails/assets/29a3b94e4c274a88b3f65d63e9e9918d/files/thumbnail_c813e47e-2e65-4ba7-aca9-618e612c4d9c.png.1024x1024_q85.png",
					"thumbnailLargeUrlNonsquaredWebp":"https://public.blenderkit.com/thumbnails/assets/29a3b94e4c274a88b3f65d63e9e9918d/files/thumbnail_c813e47e-2e65-4ba7-aca9-618e612c4d9c.png.1024x1024_q85.png.webp?webp_generated=1745842265",
					"thumbnailLargeUrlWebp":"https://public.blenderkit.com/thumbnails/assets/29a3b94e4c274a88b3f65d63e9e9918d/files/thumbnail_c813e47e-2e65-4ba7-aca9-618e612c4d9c.png.1024x1024_q85_crop-%2C.png.webp?webp_generated=1745842265",
					"thumbnailMiddleUrl":"https://public.blenderkit.com/thumbnails/assets/29a3b94e4c274a88b3f65d63e9e9918d/files/thumbnail_c813e47e-2e65-4ba7-aca9-618e612c4d9c.png.512x512_q85_crop-%2C.png",
					"thumbnailMiddleUrlNonsquared":"https://public.blenderkit.com/thumbnails/assets/29a3b94e4c274a88b3f65d63e9e9918d/files/thumbnail_c813e47e-2e65-4ba7-aca9-618e612c4d9c.png.512x512_q85.png",
					"thumbnailMiddleUrlNonsquaredWebp":"https://public.blenderkit.com/thumbnails/assets/29a3b94e4c274a88b3f65d63e9e9918d/files/thumbnail_c813e47e-2e65-4ba7-aca9-618e612c4d9c.png.512x512_q85.png.webp?webp_generated=1745842265",
					"thumbnailMiddleUrlWebp":"https://public.blenderkit.com/thumbnails/assets/29a3b94e4c274a88b3f65d63e9e9918d/files/thumbnail_c813e47e-2e65-4ba7-aca9-618e612c4d9c.png.512x512_q85_crop-%2C.png.webp?webp_generated=1745842265",
					"thumbnailSmallUrl":"https://public.blenderkit.com/thumbnails/assets/29a3b94e4c274a88b3f65d63e9e9918d/files/thumbnail_c813e47e-2e65-4ba7-aca9-618e612c4d9c.png.256x256_q85_crop-%2C.png",
					"thumbnailSmallUrlNonsquared":"https://public.blenderkit.com/thumbnails/assets/29a3b94e4c274a88b3f65d63e9e9918d/files/thumbnail_c813e47e-2e65-4ba7-aca9-618e612c4d9c.png.256x256_q85.png",
					"thumbnailSmallUrlNonsquaredWebp":"https://public.blenderkit.com/thumbnails/assets/29a3b94e4c274a88b3f65d63e9e9918d/files/thumbnail_c813e47e-2e65-4ba7-aca9-618e612c4d9c.png.256x256_q85.png.webp?webp_generated=1745842265",
					"thumbnailSmallUrlWebp":"https://public.blenderkit.com/thumbnails/assets/29a3b94e4c274a88b3f65d63e9e9918d/files/thumbnail_c813e47e-2e65-4ba7-aca9-618e612c4d9c.png.256x256_q85_crop-%2C.png.webp?webp_generated=1745842265",
					"thumbnailXlargeUrl":"https://public.blenderkit.com/thumbnails/assets/29a3b94e4c274a88b3f65d63e9e9918d/files/thumbnail_c813e47e-2e65-4ba7-aca9-618e612c4d9c.png.2048x2048_q85_crop-%2C.png",
					"thumbnailXlargeUrlNonsquared":"https://public.blenderkit.com/thumbnails/assets/29a3b94e4c274a88b3f65d63e9e9918d/files/thumbnail_c813e47e-2e65-4ba7-aca9-618e612c4d9c.png.2048x2048_q85.png",
					"thumbnailXlargeUrlNonsquaredWebp":"https://public.blenderkit.com/thumbnails/assets/29a3b94e4c274a88b3f65d63e9e9918d/files/thumbnail_c813e47e-2e65-4ba7-aca9-618e612c4d9c.png.2048x2048_q85.png.webp?webp_generated=1745842265",
					"thumbnailXlargeUrlWebp":"https://public.blenderkit.com/thumbnails/assets/29a3b94e4c274a88b3f65d63e9e9918d/files/thumbnail_c813e47e-2e65-4ba7-aca9-618e612c4d9c.png.2048x2048_q85_crop-%2C.png.webp?webp_generated=1745842265",
					"thumbnail_small":"thumbnail_c813e47e-2e65-4ba7-aca9-618e612c4d9c.png.256x256_q85_crop-%2C.png.webp",
					"tooltip_data":{
						"aname":"Camo fabric",
						"author_text":"by ydd 3D",
						"quality":"10"
					},
					"url":"https://www.blenderkit.com/api/v1/assets/29a3b94e-4c27-4a88-b3f6-5d63e9e9918d/",
					"verificationStatus":"validated",
					"versionNumber":1,
					"webpGeneratedTimestamp":1745842265,
					"resolution":"resolution_2K"
				},
				"mmd_material":{},
				"flip_fluid_material_library":{}
			},
			"name":"Camo fabric",
			"normalTexture":{
				"index":0
			},
			"pbrMetallicRoughness":{
				"baseColorTexture":{
					"index":1
				},
				"metallicFactor":0,
				"metallicRoughnessTexture":{
					"index":2
				}
			}
		},
		{
			"doubleSided":true,
			"extras":{
				"blenderkit":{
					"category":16,
					"name":"Leather Fabric - Black 70",
					"name_changed":1,
					"name_old":"Leather Fabric - Black 70",
					"description":"Black Leather. Leather 2K",
					"tags":"leather, black",
					"thumbnail":"//leather_fabric_-_black_70.png",
					"has_thumbnail":1,
					"thumbnail_scale":0.5,
					"thumbnail_samples":5,
					"thumbnail_generating_state":"",
					"is_generating_thumbnail":0,
					"pbr":1,
					"texture_resolution_max":2048,
					"texture_resolution_min":512,
					"texture_count":4,
					"node_count":11,
					"total_megapixels":12,
					"is_procedural":0,
					"shaders":"principled, ",
					"report":"",
					"asset_base_id":"399dc409-5625-4760-a256-7a7732492bd3",
					"id":"22296dc9-b63a-4f1d-8ad8-4137897972b7",
					"upload_state":"100% - Asset successfully uploaded.",
					"uploading":0,
					"texture_size_meters":0.25,
					"thumbnail_generator_type":3
				},
				"yp":{
					"active_ypaint_node":""
				},
				"asset_data":{
					"addonVersion":"3.9.0",
					"assetBaseId":"399dc409-5625-4760-a256-7a7732492bd3",
					"assetType":"material",
					"author":{
						"aboutMe":"I am a Blender animator, modeller as well as a digital imaging specialist (Photoshop, since 1998).",
						"aboutMeUrl":"https://www.turningturnip.co.uk",
						"avatar128":"/avatar-redirect/f27f13f1-fabb-4c68-a841-9fda3c707246/128/",
						"firstName":"James",
						"fullName":"James Middleton",
						"gravatarHash":"08d08063b99022fda90e8477a0b502f5",
						"id":"33950",
						"lastName":"Middleton"
					},
					"available_resolutions":[
						512,
						1024,
						2048
					],
					"canDownload":true,
					"canDownloadError":true,
					"category":"leather",
					"created":"2024-07-15T09:37:19.167090+02:00",
					"description":"Black Leather. Leather 2K",
					"dictParameters":{
						"addons":true,
						"condition":"new",
						"engine":"cycles",
						"imageAltTextGen4v":"Black leather fabric PBR material for 3D rendering in Blender and other applications, showcasing detailed texture and tiling.",
						"joinBlenderkitDiscounts":true,
						"materialStyle":"realistic",
						"megapixels":12,
						"nodeCount":11,
						"pbrType":"metallic",
						"procedural":false,
						"purePbr":true,
						"sexualizedContent":false,
						"shaders":[
							"principled"
						],
						"textureCount":4,
						"textureResolutionMax":2048,
						"textureResolutionMin":512,
						"textureSizeMeters":0.25,
						"uv":false
					},
					"displayName":"Black Leather",
					"downloaded":0,
					"files":[
						{
							"created":"2024-07-15T09:38:53.923356+02:00",
							"downloadUrl":"https://www.blenderkit.com/api/v1/downloads/422244/",
							"fileThumbnail":"",
							"fileThumbnailLarge":"",
							"fileType":"blend",
							"filename":"assets/22296dc9b63a4f1d8ad84137897972b7/files/blend_e86f83aa-7b8e-47bd-8483-2054e80ab734.blend",
							"modified":"2025-02-13T16:24:07.019662+01:00",
							"resolution":0,
							"url":""
						},
						{
							"created":"2024-07-16T06:38:24.767887+02:00",
							"downloadUrl":"https://www.blenderkit.com/api/v1/downloads/423034/",
							"fileThumbnail":"",
							"fileThumbnailLarge":"",
							"fileType":"resolution_0_5K",
							"filename":"assets/22296dc9b63a4f1d8ad84137897972b7/files/resolution_0_5K_5198b593-7152-4355-ab08-cd0d717c6dea.blend",
							"modified":"2025-02-13T16:24:07.037856+01:00",
							"resolution":0,
							"url":""
						},
						{
							"created":"2024-07-16T06:38:23.694342+02:00",
							"downloadUrl":"https://www.blenderkit.com/api/v1/downloads/423033/",
							"fileThumbnail":"",
							"fileThumbnailLarge":"",
							"fileType":"resolution_1K",
							"filename":"assets/22296dc9b63a4f1d8ad84137897972b7/files/resolution_1K_37d60aa1-227d-4c3f-9f33-a9e7555f7ca6.blend",
							"modified":"2025-02-13T16:24:07.058030+01:00",
							"resolution":0,
							"url":""
						},
						{
							"created":"2024-07-16T06:38:22.509815+02:00",
							"downloadUrl":"https://www.blenderkit.com/api/v1/downloads/423032/",
							"fileThumbnail":"",
							"fileThumbnailLarge":"",
							"fileType":"resolution_2K",
							"filename":"assets/22296dc9b63a4f1d8ad84137897972b7/files/resolution_2K_40a97d00-76c8-46a1-b2d7-91980c7ffba5.blend",
							"modified":"2025-02-13T16:24:07.074548+01:00",
							"resolution":0,
							"url":"https://assets.blenderkit.com/assets/22296dc9b63a4f1d8ad84137897972b7/files/resolution_2K_40a97d00-76c8-46a1-b2d7-91980c7ffba5.blend?verify=1765808299-GJ01IyAR8gX04fopnj1vP9heOXiKr89rBkh%2BMIptaOI%3D",
							"file_name":"D:\\Projects\\Godot Projects\\CodZombieGodot\\Models\\Blender\\Hands\\assets\\materials\\leather-fabric-b_22296dc9-b63a-4f1d-8ad8-4137897972b7\\leather-fabric-black-70_2K_40a97d00-76c8-46a1-b2d7-91980c7ffba5.blend"
						},
						{
							"created":"2024-07-15T09:38:25.831380+02:00",
							"downloadUrl":"https://www.blenderkit.com/api/v1/downloads/422239/",
							"fileThumbnail":"https://public.blenderkit.com/thumbnails/assets/22296dc9b63a4f1d8ad84137897972b7/files/thumbnail_6a6a9cef-9212-43ed-b155-7460f17b06f0.png.96x96_q85_crop-%2C.png",
							"fileThumbnailLarge":"https://public.blenderkit.com/thumbnails/assets/22296dc9b63a4f1d8ad84137897972b7/files/thumbnail_6a6a9cef-9212-43ed-b155-7460f17b06f0.png.1024x1024_q85_crop-%2C.png",
							"fileType":"thumbnail",
							"filename":"assets/22296dc9b63a4f1d8ad84137897972b7/files/thumbnail_6a6a9cef-9212-43ed-b155-7460f17b06f0.png",
							"modified":"2025-02-13T16:24:07.090823+01:00",
							"resolution":0,
							"url":""
						}
					],
					"filesSize":21153,
					"id":"22296dc9-b63a-4f1d-8ad8-4137897972b7",
					"isFree":true,
					"isPrivate":false,
					"lastBlendUpload":"2024-07-15T07:38:53.923356+00:00",
					"lastGltfUpload":"",
					"lastResolutionUpload":"2024-07-16T04:38:24.767887+00:00",
					"lastThumbnailUpload":"2024-07-15T07:38:25.831380+00:00",
					"lastUserInteraction":"2024-07-15T09:38:54.312404+02:00",
					"lastVideoUpload":"",
					"lastZipFileUpload":"",
					"license":"royalty_free",
					"max_resolution":2048,
					"name":"Leather Fabric - Black 70",
					"pk":99989,
					"ratingsAverage":{
						"bookmarks":0.9659574468085106,
						"quality":9,
						"virtualPrice":null,
						"workingHours":5
					},
					"ratingsCount":{
						"bookmarks":470,
						"quality":3,
						"virtualPrice":0,
						"workingHours":3
					},
					"ratingsMedian":{
						"bookmarks":1,
						"quality":9,
						"virtualPrice":null,
						"workingHours":5
					},
					"ratingsSum":{
						"bookmarks":454,
						"quality":27,
						"score":450,
						"virtualPrice":null,
						"workingHours":10.5
					},
					"score":450,
					"showMarketingLabels":true,
					"sourceAppName":"blender",
					"sourceAppVersion":"4.1.1",
					"tags":[
						"leather",
						"black"
					],
					"texture_size_meters":0.25,
					"thumbnail":"thumbnail_6a6a9cef-9212-43ed-b155-7460f17b06f0.png.512x512_q85_crop-%2C.png.webp",
					"thumbnailLargeUrl":"https://public.blenderkit.com/thumbnails/assets/22296dc9b63a4f1d8ad84137897972b7/files/thumbnail_6a6a9cef-9212-43ed-b155-7460f17b06f0.png.1024x1024_q85_crop-%2C.png",
					"thumbnailLargeUrlNonsquared":"https://public.blenderkit.com/thumbnails/assets/22296dc9b63a4f1d8ad84137897972b7/files/thumbnail_6a6a9cef-9212-43ed-b155-7460f17b06f0.png.1024x1024_q85.png",
					"thumbnailLargeUrlNonsquaredWebp":"https://public.blenderkit.com/thumbnails/assets/22296dc9b63a4f1d8ad84137897972b7/files/thumbnail_6a6a9cef-9212-43ed-b155-7460f17b06f0.png.1024x1024_q85.png.webp?webp_generated=1739460250",
					"thumbnailLargeUrlWebp":"https://public.blenderkit.com/thumbnails/assets/22296dc9b63a4f1d8ad84137897972b7/files/thumbnail_6a6a9cef-9212-43ed-b155-7460f17b06f0.png.1024x1024_q85_crop-%2C.png.webp?webp_generated=1739460250",
					"thumbnailMiddleUrl":"https://public.blenderkit.com/thumbnails/assets/22296dc9b63a4f1d8ad84137897972b7/files/thumbnail_6a6a9cef-9212-43ed-b155-7460f17b06f0.png.512x512_q85_crop-%2C.png",
					"thumbnailMiddleUrlNonsquared":"https://public.blenderkit.com/thumbnails/assets/22296dc9b63a4f1d8ad84137897972b7/files/thumbnail_6a6a9cef-9212-43ed-b155-7460f17b06f0.png.512x512_q85.png",
					"thumbnailMiddleUrlNonsquaredWebp":"https://public.blenderkit.com/thumbnails/assets/22296dc9b63a4f1d8ad84137897972b7/files/thumbnail_6a6a9cef-9212-43ed-b155-7460f17b06f0.png.512x512_q85.png.webp?webp_generated=1739460250",
					"thumbnailMiddleUrlWebp":"https://public.blenderkit.com/thumbnails/assets/22296dc9b63a4f1d8ad84137897972b7/files/thumbnail_6a6a9cef-9212-43ed-b155-7460f17b06f0.png.512x512_q85_crop-%2C.png.webp?webp_generated=1739460250",
					"thumbnailSmallUrl":"https://public.blenderkit.com/thumbnails/assets/22296dc9b63a4f1d8ad84137897972b7/files/thumbnail_6a6a9cef-9212-43ed-b155-7460f17b06f0.png.256x256_q85_crop-%2C.png",
					"thumbnailSmallUrlNonsquared":"https://public.blenderkit.com/thumbnails/assets/22296dc9b63a4f1d8ad84137897972b7/files/thumbnail_6a6a9cef-9212-43ed-b155-7460f17b06f0.png.256x256_q85.png",
					"thumbnailSmallUrlNonsquaredWebp":"https://public.blenderkit.com/thumbnails/assets/22296dc9b63a4f1d8ad84137897972b7/files/thumbnail_6a6a9cef-9212-43ed-b155-7460f17b06f0.png.256x256_q85.png.webp?webp_generated=1739460250",
					"thumbnailSmallUrlWebp":"https://public.blenderkit.com/thumbnails/assets/22296dc9b63a4f1d8ad84137897972b7/files/thumbnail_6a6a9cef-9212-43ed-b155-7460f17b06f0.png.256x256_q85_crop-%2C.png.webp?webp_generated=1739460250",
					"thumbnailXlargeUrl":"https://public.blenderkit.com/thumbnails/assets/22296dc9b63a4f1d8ad84137897972b7/files/thumbnail_6a6a9cef-9212-43ed-b155-7460f17b06f0.png.2048x2048_q85_crop-%2C.png",
					"thumbnailXlargeUrlNonsquared":"https://public.blenderkit.com/thumbnails/assets/22296dc9b63a4f1d8ad84137897972b7/files/thumbnail_6a6a9cef-9212-43ed-b155-7460f17b06f0.png.2048x2048_q85.png",
					"thumbnailXlargeUrlNonsquaredWebp":"https://public.blenderkit.com/thumbnails/assets/22296dc9b63a4f1d8ad84137897972b7/files/thumbnail_6a6a9cef-9212-43ed-b155-7460f17b06f0.png.2048x2048_q85.png.webp?webp_generated=1739460250",
					"thumbnailXlargeUrlWebp":"https://public.blenderkit.com/thumbnails/assets/22296dc9b63a4f1d8ad84137897972b7/files/thumbnail_6a6a9cef-9212-43ed-b155-7460f17b06f0.png.2048x2048_q85_crop-%2C.png.webp?webp_generated=1739460250",
					"thumbnail_small":"thumbnail_6a6a9cef-9212-43ed-b155-7460f17b06f0.png.256x256_q85_crop-%2C.png.webp",
					"tooltip_data":{
						"aname":"Black Leather",
						"author_text":"by James Middleton",
						"quality":"9"
					},
					"url":"https://www.blenderkit.com/api/v1/assets/22296dc9-b63a-4f1d-8ad8-4137897972b7/",
					"verificationStatus":"validated",
					"versionNumber":1,
					"webpGeneratedTimestamp":1739460250,
					"resolution":"resolution_2K"
				},
				"mmd_material":{},
				"flip_fluid_material_library":{}
			},
			"name":"Leather Fabric - Black 70",
			"normalTexture":{
				"index":3
			},
			"pbrMetallicRoughness":{
				"baseColorTexture":{
					"index":4
				},
				"metallicFactor":0,
				"metallicRoughnessTexture":{
					"index":5
				}
			}
		},
		{
			"doubleSided":true,
			"extras":{
				"mmd_material":{},
				"flip_fluid_material_library":{}
			},
			"name":"Skin",
			"normalTexture":{
				"index":6
			},
			"pbrMetallicRoughness":{
				"baseColorTexture":{
					"index":7
				},
				"metallicFactor":0,
				"metallicRoughnessTexture":{
					"index":8
				}
			}
		}
	],
	"meshes":[
		{
			"name":"Hands",
			"primitives":[
				{
					"attributes":{
						"POSITION":0,
						"NORMAL":1,
						"TEXCOORD_0":2,
						"TANGENT":3,
						"JOINTS_0":4,
						"WEIGHTS_0":5
					},
					"indices":6,
					"material":0
				},
				{
					"attributes":{
						"POSITION":7,
						"NORMAL":8,
						"TEXCOORD_0":9,
						"TANGENT":10,
						"JOINTS_0":11,
						"WEIGHTS_0":12
					},
					"indices":13,
					"material":1
				},
				{
					"attributes":{
						"POSITION":14,
						"NORMAL":15,
						"TEXCOORD_0":16,
						"TANGENT":17,
						"JOINTS_0":18,
						"WEIGHTS_0":19
					},
					"indices":20,
					"material":2
				}
			]
		}
	],
	"textures":[
		{
			"sampler":0,
			"source":0
		},
		{
			"sampler":0,
			"source":1
		},
		{
			"sampler":0,
			"source":2
		},
		{
			"sampler":0,
			"source":0
		},
		{
			"sampler":0,
			"source":1
		},
		{
			"sampler":0,
			"source":2
		},
		{
			"sampler":0,
			"source":0
		},
		{
			"sampler":0,
			"source":1
		},
		{
			"sampler":0,
			"source":2
		}
	],
	"images":[
		{
			"mimeType":"image/png",
			"name":"Hands Normal",
			"uri":"../../Models/Blender/Hands/Hands%20Normal.png"
		},
		{
			"mimeType":"image/png",
			"name":"Hands Diffuse",
			"uri":"../../Models/Blender/Hands/Hands%20Diffuse.png"
		},
		{
			"mimeType":"image/png",
			"name":"Hands Roughness",
			"uri":"../../Models/Blender/Hands/Hands%20Roughness.png"
		}
	],
	"skins":[
		{
			"inverseBindMatrices":21,
			"joints":[
				0,
				1
			],
			"name":"Hands Rig"
		}
	],
	"accessors":[
		{
			"bufferView":0,
			"componentType":5126,
			"count":214,
			"max":[
				0.5250000357627869,
				0.1250000149011612,
				0.3750000596046448
			],
			"min":[
				-0.5250000357627869,
				-0.1250000149011612,
				-0.31829971075057983
			],
			"type":"VEC3"
		},
		{
			"bufferView":1,
			"componentType":5126,
			"count":214,
			"type":"VEC3"
		},
		{
			"bufferView":2,
			"componentType":5126,
			"count":214,
			"type":"VEC2"
		},
		{
			"bufferView":3,
			"componentType":5126,
			"count":214,
			"type":"VEC4"
		},
		{
			"bufferView":4,
			"componentType":5121,
			"count":214,
			"type":"VEC4"
		},
		{
			"bufferView":5,
			"componentType":5126,
			"count":214,
			"type":"VEC4"
		},
		{
			"bufferView":6,
			"componentType":5123,
			"count":384,
			"type":"SCALAR"
		},
		{
			"bufferView":7,
			"componentType":5126,
			"count":424,
			"max":[
				0.5250000357627869,
				0.1250000149011612,
				-0.26399677991867065
			],
			"min":[
				-0.5250000357627869,
				-0.1250000149011612,
				-0.3750000596046448
			],
			"type":"VEC3"
		},
		{
			"bufferView":8,
			"componentType":5126,
			"count":424,
			"type":"VEC3"
		},
		{
			"bufferView":9,
			"componentType":5126,
			"count":424,
			"type":"VEC2"
		},
		{
			"bufferView":10,
			"componentType":5126,
			"count":424,
			"type":"VEC4"
		},
		{
			"bufferView":11,
			"componentType":5121,
			"count":424,
			"type":"VEC4"
		},
		{
			"bufferView":12,
			"componentType":5126,
			"count":424,
			"type":"VEC4"
		},
		{
			"bufferView":13,
			"componentType":5123,
			"count":732,
			"type":"SCALAR"
		},
		{
			"bufferView":14,
			"componentType":5126,
			"count":140,
			"max":[
				0.4000000059604645,
				0.1250000149011612,
				-0.31829971075057983
			],
			"min":[
				-0.4000000059604645,
				-0.1250000149011612,
				-0.3750000596046448
			],
			"type":"VEC3"
		},
		{
			"bufferView":15,
			"componentType":5126,
			"count":140,
			"type":"VEC3"
		},
		{
			"bufferView":16,
			"componentType":5126,
			"count":140,
			"type":"VEC2"
		},
		{
			"bufferView":17,
			"componentType":5126,
			"count":140,
			"type":"VEC4"
		},
		{
			"bufferView":18,
			"componentType":5121,
			"count":140,
			"type":"VEC4"
		},
		{
			"bufferView":19,
			"componentType":5126,
			"count":140,
			"type":"VEC4"
		},
		{
			"bufferView":20,
			"componentType":5123,
			"count":228,
			"type":"SCALAR"
		},
		{
			"bufferView":21,
			"componentType":5126,
			"count":2,
			"type":"MAT4"
		}
	],
	"bufferViews":[
		{
			"buffer":0,
			"byteLength":2568,
			"byteOffset":0,
			"target":34962
		},
		{
			"buffer":0,
			"byteLength":2568,
			"byteOffset":2568,
			"target":34962
		},
		{
			"buffer":0,
			"byteLength":1712,
			"byteOffset":5136,
			"target":34962
		},
		{
			"buffer":0,
			"byteLength":3424,
			"byteOffset":6848,
			"target":34962
		},
		{
			"buffer":0,
			"byteLength":856,
			"byteOffset":10272,
			"target":34962
		},
		{
			"buffer":0,
			"byteLength":3424,
			"byteOffset":11128,
			"target":34962
		},
		{
			"buffer":0,
			"byteLength":768,
			"byteOffset":14552,
			"target":34963
		},
		{
			"buffer":0,
			"byteLength":5088,
			"byteOffset":15320,
			"target":34962
		},
		{
			"buffer":0,
			"byteLength":5088,
			"byteOffset":20408,
			"target":34962
		},
		{
			"buffer":0,
			"byteLength":3392,
			"byteOffset":25496,
			"target":34962
		},
		{
			"buffer":0,
			"byteLength":6784,
			"byteOffset":28888,
			"target":34962
		},
		{
			"buffer":0,
			"byteLength":1696,
			"byteOffset":35672,
			"target":34962
		},
		{
			"buffer":0,
			"byteLength":6784,
			"byteOffset":37368,
			"target":34962
		},
		{
			"buffer":0,
			"byteLength":1464,
			"byteOffset":44152,
			"target":34963
		},
		{
			"buffer":0,
			"byteLength":1680,
			"byteOffset":45616,
			"target":34962
		},
		{
			"buffer":0,
			"byteLength":1680,
			"byteOffset":47296,
			"target":34962
		},
		{
			"buffer":0,
			"byteLength":1120,
			"byteOffset":48976,
			"target":34962
		},
		{
			"buffer":0,
			"byteLength":2240,
			"byteOffset":50096,
			"target":34962
		},
		{
			"buffer":0,
			"byteLength":560,
			"byteOffset":52336,
			"target":34962
		},
		{
			"buffer":0,
			"byteLength":2240,
			"byteOffset":52896,
			"target":34962
		},
		{
			"buffer":0,
			"byteLength":456,
			"byteOffset":55136,
			"target":34963
		},
		{
			"buffer":0,
			"byteLength":128,
			"byteOffset":55592
		}
	],
	"samplers":[
		{
			"magFilter":9729,
			"minFilter":9987
		}
	],
	"buffers":[
		{
			"byteLength":55720,
			"uri":"Hands-f92cc2b81fabcaa30656129b9c0bb03d.bin"
		}
	]
}
