{
	"asset":{
		"generator":"Khronos glTF Blender I/O v4.1.63",
		"version":"2.0"
	},
	"scene":0,
	"scenes":[
		{
			"extras":{
				"blenrig_guide":{
					"state_keyframe_insert_available":0
				},
				"wiggle":{
					"is_rendering":0
				},
				"MustardUI_Settings":{},
				"uuid":"fa3c152b-1ba1-48ef-92ad-ff99a06530cb",
				"assets reported":{},
				"skinify":{
					"connect_mesh":0,
					"connect_parents":0,
					"generate_all":0,
					"thickness":0.800000011920929,
					"finger_thickness":0.25,
					"apply_mod":1,
					"parent_armature":1,
					"sub_level":1
				},
				"flip_fluid":{},
				"flip_fluid_helper":{
					"is_auto_frame_load_cmd_operator_running":0,
					"alembic_output_filepath":"//Juggernog Machine.abc",
					"is_alembic_output_filepath_set":1
				},
				"flip_fluid_material_library":{
					"library_path":"C:\\Users\\User\\AppData\\Roaming\\Blender Foundation\\Blender\\4.1\\scripts\\addons\\flip_fluids_addon\\materials\\material_library"
				},
				"sun_pos_properties":{
					"show_surface":0,
					"show_analemmas":0,
					"show_north":0,
					"latitude":0.0,
					"day_of_year":334,
					"sun_object":{},
					"object_collection":{}
				},
				"fluid_painter":{}
			},
			"name":"Scene",
			"nodes":[
				0,
				1,
				2
			]
		}
	],
	"nodes":[
		{
			"extras":{
				"flip_fluid":{}
			},
			"mesh":0,
			"name":"TomGroup_0",
			"rotation":[
				0,
				0.7071067094802856,
				0,
				0.7071068286895752
			]
		},
		{
			"extras":{
				"flip_fluid":{}
			},
			"mesh":1,
			"name":"t6_wpn_zmb_perk_bottle_jugg_view_LOD_0",
			"rotation":[
				0,
				0.7071067094802856,
				0,
				0.7071068286895752
			],
			"translation":[
				1,
				0,
				0
			]
		},
		{
			"extras":{
				"flip_fluid":{}
			},
			"mesh":2,
			"name":"t6_wpn_zmb_perk_bottle_jugg_view_LOD_0.001",
			"rotation":[
				0,
				0.7071067094802856,
				0,
				0.7071068286895752
			],
			"translation":[
				1,
				0.3760000169277191,
				0
			]
		}
	],
	"materials":[
		{
			"doubleSided":true,
			"extras":{
				"mmd_material":{},
				"flip_fluid_material_library":{}
			},
			"name":"Juggernog Machine",
			"pbrMetallicRoughness":{
				"baseColorTexture":{
					"index":0
				},
				"metallicFactor":0,
				"metallicRoughnessTexture":{
					"index":1
				}
			}
		},
		{
			"doubleSided":true,
			"extras":{
				"mmd_material":{},
				"flip_fluid_material_library":{}
			},
			"name":"Juggernog Bottle",
			"normalTexture":{
				"index":2
			},
			"pbrMetallicRoughness":{
				"baseColorTexture":{
					"index":3
				},
				"metallicFactor":0,
				"metallicRoughnessTexture":{
					"index":4
				}
			}
		}
	],
	"meshes":[
		{
			"name":"TomGroup_0",
			"primitives":[
				{
					"attributes":{
						"POSITION":0,
						"NORMAL":1,
						"TEXCOORD_0":2,
						"TANGENT":3
					},
					"indices":4,
					"material":0
				}
			]
		},
		{
			"name":"Juggernog Bottle",
			"primitives":[
				{
					"attributes":{
						"POSITION":5,
						"NORMAL":6,
						"TEXCOORD_0":7,
						"TANGENT":8
					},
					"indices":9,
					"material":1
				}
			]
		},
		{
			"name":"Juggernog Bottle Cap",
			"primitives":[
				{
					"attributes":{
						"POSITION":10,
						"NORMAL":11,
						"TEXCOORD_0":12,
						"TANGENT":13
					},
					"indices":14,
					"material":1
				}
			]
		}
	],
	"textures":[
		{
			"sampler":0,
			"source":0
		},
		{
			"sampler":0,
			"source":1
		},
		{
			"sampler":0,
			"source":2
		},
		{
			"sampler":0,
			"source":3
		},
		{
			"sampler":0,
			"source":3
		}
	],
	"images":[
		{
			"mimeType":"image/png",
			"name":"~~-gzombie_vending_jugg_spec-~173469c4.dds",
			"uri":"../../Models/Blender/Perks/Juggernog/Juggernog%20Machine%20Diffuse.png"
		},
		{
			"mimeType":"image/png",
			"name":"~-gp6_zm_al_vending_jugg_c.dds.001",
			"uri":"../../Models/Blender/Perks/Juggernog/Juggernog%20Machine%20Roughness.png"
		},
		{
			"mimeType":"image/png",
			"name":"Juggernog Bottle Normal.png",
			"uri":"../../Models/Blender/Perks/Juggernog/Juggernog%20Bottle%20Normal.png"
		},
		{
			"mimeType":"image/png",
			"name":"Juggernog Bottle Diffuse.png",
			"uri":"../../Models/Blender/Perks/Juggernog/Juggernog%20Bottle%20Diffuse.png"
		}
	],
	"accessors":[
		{
			"bufferView":0,
			"componentType":5126,
			"count":2976,
			"max":[
				0.37706178426742554,
				2.5574700832366943,
				0.715107798576355
			],
			"min":[
				-0.38700607419013977,
				-0.014278113842010498,
				-0.23411911725997925
			],
			"type":"VEC3"
		},
		{
			"bufferView":1,
			"componentType":5126,
			"count":2976,
			"type":"VEC3"
		},
		{
			"bufferView":2,
			"componentType":5126,
			"count":2976,
			"type":"VEC2"
		},
		{
			"bufferView":3,
			"componentType":5126,
			"count":2976,
			"type":"VEC4"
		},
		{
			"bufferView":4,
			"componentType":5123,
			"count":3594,
			"type":"SCALAR"
		},
		{
			"bufferView":5,
			"componentType":5126,
			"count":2779,
			"max":[
				0.07272069156169891,
				0.3734842538833618,
				0.07292391359806061
			],
			"min":[
				-0.07252176105976105,
				-0.14852583408355713,
				-0.0723184198141098
			],
			"type":"VEC3"
		},
		{
			"bufferView":6,
			"componentType":5126,
			"count":2779,
			"type":"VEC3"
		},
		{
			"bufferView":7,
			"componentType":5126,
			"count":2779,
			"type":"VEC2"
		},
		{
			"bufferView":8,
			"componentType":5126,
			"count":2779,
			"type":"VEC4"
		},
		{
			"bufferView":9,
			"componentType":5123,
			"count":2832,
			"type":"SCALAR"
		},
		{
			"bufferView":10,
			"componentType":5126,
			"count":362,
			"max":[
				0.03302567079663277,
				0.008063346147537231,
				0.033234406262636185
			],
			"min":[
				-0.032837580889463425,
				-0.006734341382980347,
				-0.032628875225782394
			],
			"type":"VEC3"
		},
		{
			"bufferView":11,
			"componentType":5126,
			"count":362,
			"type":"VEC3"
		},
		{
			"bufferView":12,
			"componentType":5126,
			"count":362,
			"type":"VEC2"
		},
		{
			"bufferView":13,
			"componentType":5126,
			"count":362,
			"type":"VEC4"
		},
		{
			"bufferView":14,
			"componentType":5123,
			"count":384,
			"type":"SCALAR"
		}
	],
	"bufferViews":[
		{
			"buffer":0,
			"byteLength":35712,
			"byteOffset":0,
			"target":34962
		},
		{
			"buffer":0,
			"byteLength":35712,
			"byteOffset":35712,
			"target":34962
		},
		{
			"buffer":0,
			"byteLength":23808,
			"byteOffset":71424,
			"target":34962
		},
		{
			"buffer":0,
			"byteLength":47616,
			"byteOffset":95232,
			"target":34962
		},
		{
			"buffer":0,
			"byteLength":7188,
			"byteOffset":142848,
			"target":34963
		},
		{
			"buffer":0,
			"byteLength":33348,
			"byteOffset":150036,
			"target":34962
		},
		{
			"buffer":0,
			"byteLength":33348,
			"byteOffset":183384,
			"target":34962
		},
		{
			"buffer":0,
			"byteLength":22232,
			"byteOffset":216732,
			"target":34962
		},
		{
			"buffer":0,
			"byteLength":44464,
			"byteOffset":238964,
			"target":34962
		},
		{
			"buffer":0,
			"byteLength":5664,
			"byteOffset":283428,
			"target":34963
		},
		{
			"buffer":0,
			"byteLength":4344,
			"byteOffset":289092,
			"target":34962
		},
		{
			"buffer":0,
			"byteLength":4344,
			"byteOffset":293436,
			"target":34962
		},
		{
			"buffer":0,
			"byteLength":2896,
			"byteOffset":297780,
			"target":34962
		},
		{
			"buffer":0,
			"byteLength":5792,
			"byteOffset":300676,
			"target":34962
		},
		{
			"buffer":0,
			"byteLength":768,
			"byteOffset":306468,
			"target":34963
		}
	],
	"samplers":[
		{
			"magFilter":9729,
			"minFilter":9987
		}
	],
	"buffers":[
		{
			"byteLength":307236,
			"uri":"Juggernog%20Machine-48fdb90a4333b46863fca6c257f1981f.bin"
		}
	]
}
