{
	"asset":{
		"generator":"Khronos glTF Blender I/O v4.1.63",
		"version":"2.0"
	},
	"scene":0,
	"scenes":[
		{
			"extras":{
				"blenrig_guide":{
					"state_keyframe_insert_available":0
				},
				"wiggle":{
					"is_rendering":0
				},
				"MustardUI_Settings":{},
				"uuid":"fa3c152b-1ba1-48ef-92ad-ff99a06530cb",
				"assets reported":{},
				"skinify":{
					"connect_mesh":0,
					"connect_parents":0,
					"generate_all":0,
					"thickness":0.800000011920929,
					"finger_thickness":0.25,
					"apply_mod":1,
					"parent_armature":1,
					"sub_level":1
				},
				"flip_fluid":{},
				"flip_fluid_helper":{
					"is_auto_frame_load_cmd_operator_running":0,
					"alembic_output_filepath":"//Knife.abc",
					"is_alembic_output_filepath_set":1
				},
				"flip_fluid_material_library":{
					"library_path":"C:\\Users\\User\\AppData\\Roaming\\Blender Foundation\\Blender\\4.1\\scripts\\addons\\flip_fluids_addon\\materials\\material_library"
				},
				"sun_pos_properties":{
					"show_surface":0,
					"show_analemmas":0,
					"show_north":0,
					"latitude":0.0,
					"day_of_year":119,
					"sun_object":{},
					"object_collection":{}
				},
				"fluid_painter":{},
				"assets used":{
					"46aac181-27f8-4c9c-aa04-2a522d2b3f77":{
						"addonVersion":"3.0.0",
						"assetBaseId":"46aac181-27f8-4c9c-aa04-2a522d2b3f77",
						"assetType":"model",
						"author":{
							"aboutMe":"For all we know life's just a dream; who the hell knows what it means",
							"aboutMeUrl":"https://www.artstation.com/heavendevourer",
							"avatar128":"/avatar-redirect/6a9d4b6a-e884-4d09-9d62-d8abf411dd54/128/",
							"firstName":"Seatla",
							"fullName":"Seatla Morake",
							"gravatarHash":"085c4b65fe33d3a0287c1cb8f0ba3531",
							"gravatarImg":"C:\\Users\\User\\AppData\\Local\\Temp\\bktemp_CHRISTOPHERPCUser\\bkit_g\\155705.jpg",
							"id":"155705",
							"lastName":"Morake",
							"socialNetworks":[
								{
									"socialNetwork":{
										"icon":"<i class=\"fab fa-x-twitter\" title=\"Twitter\"></i><span class=\"sr-only\">Twitter</span>",
										"name":"Twitter",
										"order":7
									},
									"url":"https://x.com/morake_seatla"
								}
							],
							"tooltip":"Seatla Morake\n\nFor all we know life's just a dream; who the hell knows what it means\n"
						},
						"available_resolutions":[
							512,
							1024,
							2048,
							4096
						],
						"bbox_max":[
							0.0266,
							0.1249,
							0.0278
						],
						"bbox_min":[
							-0.0265,
							-0.1249,
							-0.0001
						],
						"canDownload":true,
						"canDownloadError":true,
						"category":"equipment",
						"created":"2021-12-11T22:38:33.020709+01:00",
						"description":"A big combat knife, worn but still sharp. Procedural textures. Please Rate! Enjoy!",
						"dictParameters":{
							"boundBoxMaxX":0.0266,
							"boundBoxMaxY":0.1249,
							"boundBoxMaxZ":0.0278,
							"boundBoxMinX":-0.0265,
							"boundBoxMinY":-0.1249,
							"boundBoxMinZ":-0.0001,
							"condition":"used",
							"dimensionX":0.0531,
							"dimensionY":0.2498,
							"dimensionZ":0.0279,
							"engines":[
								"cycles"
							],
							"faceCount":2458,
							"faceCountRender":39328,
							"imageAltTextGen4v":"Detailed 3D model of a combat knife with realistic textures, suitable for Blender rendering.",
							"joinBlenderkitDiscounts":true,
							"manifold":false,
							"materials":[
								"Material.001",
								"Material.004",
								"Material.005",
								"Material.003"
							],
							"megapixels":34,
							"meshPolyType":"quad_dominant",
							"modelStyle":"realistic",
							"modifiers":[
								"subsurf"
							],
							"nodeCount":74,
							"objectCount":2,
							"procedural":false,
							"productionLevel":"finished",
							"rig":false,
							"sexualizedContent":false,
							"shaders":[
								"mix shader",
								"principled"
							],
							"simulation":false,
							"textureCount":2,
							"textureResolutionMax":4096,
							"textureResolutionMin":4096,
							"uv":true
						},
						"displayName":"Knife",
						"downloaded":0,
						"files":[
							{
								"created":"2021-12-12T08:01:57.534761+01:00",
								"downloadUrl":"https://www.blenderkit.com/api/v1/downloads/90807/",
								"fileThumbnail":"",
								"fileThumbnailLarge":"",
								"fileType":"blend",
								"filename":"assets/6042c5bd44fb4234956252bd1e61517a/files/blend_94c25f18-8825-49cd-9eea-271e8d1cc81b.blend",
								"modified":"2023-05-15T14:32:47.789393+02:00",
								"resolution":0,
								"url":""
							},
							{
								"created":"2024-01-30T17:21:58.942264+01:00",
								"downloadUrl":"https://www.blenderkit.com/api/v1/downloads/314985/",
								"fileThumbnail":"",
								"fileThumbnailLarge":"",
								"fileType":"resolution_0_5K",
								"filename":"assets/6042c5bd44fb4234956252bd1e61517a/files/resolution_0_5K_74f33abb-d08d-499b-9532-023359f7fb3d.blend",
								"modified":"2024-01-30T17:21:58.942277+01:00",
								"resolution":0,
								"url":""
							},
							{
								"created":"2024-01-30T17:21:58.242398+01:00",
								"downloadUrl":"https://www.blenderkit.com/api/v1/downloads/314984/",
								"fileThumbnail":"",
								"fileThumbnailLarge":"",
								"fileType":"resolution_1K",
								"filename":"assets/6042c5bd44fb4234956252bd1e61517a/files/resolution_1K_2525da74-5972-42ef-bdbc-8aec82e071f7.blend",
								"modified":"2024-01-30T17:21:58.242416+01:00",
								"resolution":0,
								"url":""
							},
							{
								"created":"2024-01-30T17:21:57.520535+01:00",
								"downloadUrl":"https://www.blenderkit.com/api/v1/downloads/314983/",
								"fileThumbnail":"",
								"fileThumbnailLarge":"",
								"fileType":"resolution_2K",
								"filename":"assets/6042c5bd44fb4234956252bd1e61517a/files/resolution_2K_b2cc4474-a978-4cd7-a8b8-1037d73da2e8.blend",
								"modified":"2024-01-30T17:21:57.520552+01:00",
								"resolution":0,
								"url":"https://assets.blenderkit.com/assets/6042c5bd44fb4234956252bd1e61517a/files/resolution_2K_b2cc4474-a978-4cd7-a8b8-1037d73da2e8.blend?verify=1745734404-otLwubp3ndLrq983gRpuQQcKHKfrrFD%2Bjbe%2B2y%2BgmVY%3D",
								"file_name":"C:\\Users\\User\\blenderkit_data\\models\\knife_6042c5bd-44fb-4234-9562-52bd1e61517a\\knife_2K_b2cc4474-a978-4cd7-a8b8-1037d73da2e8.blend"
							},
							{
								"created":"2024-01-30T17:21:56.928529+01:00",
								"downloadUrl":"https://www.blenderkit.com/api/v1/downloads/314982/",
								"fileThumbnail":"",
								"fileThumbnailLarge":"",
								"fileType":"resolution_4K",
								"filename":"assets/6042c5bd44fb4234956252bd1e61517a/files/resolution_4K_7708af38-abef-4698-ba89-b5b21d40cce4.blend",
								"modified":"2024-01-30T17:21:56.928550+01:00",
								"resolution":0,
								"url":""
							},
							{
								"created":"2021-12-15T17:08:20.101561+01:00",
								"downloadUrl":"https://www.blenderkit.com/api/v1/downloads/91305/",
								"fileThumbnail":"https://public.blenderkit.com/thumbnails/assets/6042c5bd44fb4234956252bd1e61517a/files/thumbnail_37fa9612-652d-44da-a355-0d6f50b00324.jpg.96x96_q85_crop-%2C.jpg",
								"fileThumbnailLarge":"https://public.blenderkit.com/thumbnails/assets/6042c5bd44fb4234956252bd1e61517a/files/thumbnail_37fa9612-652d-44da-a355-0d6f50b00324.jpg.1024x1024_q85_crop-%2C.jpg",
								"fileType":"thumbnail",
								"filename":"assets/6042c5bd44fb4234956252bd1e61517a/files/thumbnail_37fa9612-652d-44da-a355-0d6f50b00324.jpg",
								"modified":"2021-12-31T22:03:06.403805+01:00",
								"resolution":0,
								"url":""
							}
						],
						"filesSize":28602,
						"id":"6042c5bd-44fb-4234-9562-52bd1e61517a",
						"isFree":true,
						"isPrivate":false,
						"lastBlendUpload":"2021-12-12T07:01:57.534761+00:00",
						"lastGltfUpload":"",
						"lastResolutionUpload":"2024-01-30T16:21:58.942264+00:00",
						"lastThumbnailUpload":"2021-12-15T16:08:20.101561+00:00",
						"lastUserInteraction":"2021-12-11T22:40:16.813150+01:00",
						"lastVideoUpload":"",
						"lastZipFileUpload":"",
						"license":"cc_zero",
						"max_resolution":4096,
						"name":"Knife",
						"pk":25577,
						"ratingsAverage":{
							"bookmarks":1,
							"quality":7.25,
							"virtualPrice":null,
							"workingHours":4
						},
						"ratingsCount":{
							"bookmarks":57,
							"quality":4,
							"virtualPrice":0,
							"workingHours":2
						},
						"ratingsMedian":{
							"bookmarks":1,
							"quality":7,
							"virtualPrice":null,
							"workingHours":4
						},
						"ratingsSum":{
							"bookmarks":57,
							"quality":29,
							"score":290,
							"virtualPrice":null,
							"workingHours":8
						},
						"score":290,
						"showMarketingLabels":true,
						"sourceAppName":"blender",
						"sourceAppVersion":"3.0.0",
						"tags":[
							"knife",
							"old",
							"military",
							"worn",
							"combat",
							"war",
							"weapon"
						],
						"thumbnail":"thumbnail_37fa9612-652d-44da-a355-0d6f50b00324.jpg.512x512_q85_crop-%2C.jpg.webp",
						"thumbnailLargeUrl":"https://public.blenderkit.com/thumbnails/assets/6042c5bd44fb4234956252bd1e61517a/files/thumbnail_37fa9612-652d-44da-a355-0d6f50b00324.jpg.1024x1024_q85_crop-%2C.jpg",
						"thumbnailLargeUrlNonsquared":"https://public.blenderkit.com/thumbnails/assets/6042c5bd44fb4234956252bd1e61517a/files/thumbnail_37fa9612-652d-44da-a355-0d6f50b00324.jpg.1024x1024_q85.jpg",
						"thumbnailLargeUrlNonsquaredWebp":"https://public.blenderkit.com/thumbnails/assets/6042c5bd44fb4234956252bd1e61517a/files/thumbnail_37fa9612-652d-44da-a355-0d6f50b00324.jpg.1024x1024_q85.jpg.webp?webp_generated=1698542776",
						"thumbnailLargeUrlWebp":"https://public.blenderkit.com/thumbnails/assets/6042c5bd44fb4234956252bd1e61517a/files/thumbnail_37fa9612-652d-44da-a355-0d6f50b00324.jpg.1024x1024_q85_crop-%2C.jpg.webp?webp_generated=1698542776",
						"thumbnailMiddleUrl":"https://public.blenderkit.com/thumbnails/assets/6042c5bd44fb4234956252bd1e61517a/files/thumbnail_37fa9612-652d-44da-a355-0d6f50b00324.jpg.512x512_q85_crop-%2C.jpg",
						"thumbnailMiddleUrlNonsquared":"https://public.blenderkit.com/thumbnails/assets/6042c5bd44fb4234956252bd1e61517a/files/thumbnail_37fa9612-652d-44da-a355-0d6f50b00324.jpg.512x512_q85.jpg",
						"thumbnailMiddleUrlNonsquaredWebp":"https://public.blenderkit.com/thumbnails/assets/6042c5bd44fb4234956252bd1e61517a/files/thumbnail_37fa9612-652d-44da-a355-0d6f50b00324.jpg.512x512_q85.jpg.webp?webp_generated=1698542776",
						"thumbnailMiddleUrlWebp":"https://public.blenderkit.com/thumbnails/assets/6042c5bd44fb4234956252bd1e61517a/files/thumbnail_37fa9612-652d-44da-a355-0d6f50b00324.jpg.512x512_q85_crop-%2C.jpg.webp?webp_generated=1698542776",
						"thumbnailSmallUrl":"https://public.blenderkit.com/thumbnails/assets/6042c5bd44fb4234956252bd1e61517a/files/thumbnail_37fa9612-652d-44da-a355-0d6f50b00324.jpg.256x256_q85_crop-%2C.jpg",
						"thumbnailSmallUrlNonsquared":"https://public.blenderkit.com/thumbnails/assets/6042c5bd44fb4234956252bd1e61517a/files/thumbnail_37fa9612-652d-44da-a355-0d6f50b00324.jpg.256x256_q85.jpg",
						"thumbnailSmallUrlNonsquaredWebp":"https://public.blenderkit.com/thumbnails/assets/6042c5bd44fb4234956252bd1e61517a/files/thumbnail_37fa9612-652d-44da-a355-0d6f50b00324.jpg.256x256_q85.jpg.webp?webp_generated=1698542776",
						"thumbnailSmallUrlWebp":"https://public.blenderkit.com/thumbnails/assets/6042c5bd44fb4234956252bd1e61517a/files/thumbnail_37fa9612-652d-44da-a355-0d6f50b00324.jpg.256x256_q85_crop-%2C.jpg.webp?webp_generated=1698542776",
						"thumbnailXlargeUrl":"https://public.blenderkit.com/thumbnails/assets/6042c5bd44fb4234956252bd1e61517a/files/thumbnail_37fa9612-652d-44da-a355-0d6f50b00324.jpg.2048x2048_q85_crop-%2C.jpg",
						"thumbnailXlargeUrlNonsquared":"https://public.blenderkit.com/thumbnails/assets/6042c5bd44fb4234956252bd1e61517a/files/thumbnail_37fa9612-652d-44da-a355-0d6f50b00324.jpg.2048x2048_q85.jpg",
						"thumbnailXlargeUrlNonsquaredWebp":"https://public.blenderkit.com/thumbnails/assets/6042c5bd44fb4234956252bd1e61517a/files/thumbnail_37fa9612-652d-44da-a355-0d6f50b00324.jpg.2048x2048_q85.jpg.webp?webp_generated=1698542776",
						"thumbnailXlargeUrlWebp":"https://public.blenderkit.com/thumbnails/assets/6042c5bd44fb4234956252bd1e61517a/files/thumbnail_37fa9612-652d-44da-a355-0d6f50b00324.jpg.2048x2048_q85_crop-%2C.jpg.webp?webp_generated=1698542776",
						"thumbnail_small":"thumbnail_37fa9612-652d-44da-a355-0d6f50b00324.jpg.256x256_q85_crop-%2C.jpg.webp",
						"tooltip_data":{
							"aname":"Knife",
							"author_text":"by Seatla Morake",
							"quality":"7"
						},
						"url":"https://www.blenderkit.com/api/v1/assets/6042c5bd-44fb-4234-9562-52bd1e61517a/",
						"verificationStatus":"validated",
						"versionNumber":1,
						"webpGeneratedTimestamp":1698542776,
						"resolution":"resolution_2K"
					}
				}
			},
			"name":"Scene",
			"nodes":[
				0
			]
		}
	],
	"nodes":[
		{
			"extras":{
				"ant_landscape":{},
				"flip_fluid":{}
			},
			"mesh":0,
			"name":"Knife",
			"rotation":[
				0,
				1,
				0,
				1.6292068494294654e-07
			],
			"scale":[
				2,
				2,
				2
			]
		}
	],
	"materials":[
		{
			"doubleSided":true,
			"extras":{
				"pov":{},
				"mmd_material":{},
				"flip_fluid_material_library":{}
			},
			"name":"Knife Metal",
			"pbrMetallicRoughness":{
				"baseColorTexture":{
					"index":0
				},
				"roughnessFactor":0.34090906381607056
			}
		},
		{
			"doubleSided":true,
			"extras":{
				"pov":{},
				"mmd_material":{},
				"flip_fluid_material_library":{}
			},
			"name":"Knife Leather",
			"pbrMetallicRoughness":{
				"baseColorFactor":[
					0.22042715549468994,
					0.06683697551488876,
					0.0014793692389503121,
					1
				],
				"metallicFactor":0,
				"roughnessFactor":0.5772727131843567
			}
		},
		{
			"doubleSided":true,
			"extras":{
				"pov":{},
				"blenderkit":{
					"has_thumbnail":1,
					"thumbnail_generating_state":""
				},
				"mmd_material":{},
				"flip_fluid_material_library":{}
			},
			"name":"Handle Metal",
			"pbrMetallicRoughness":{
				"baseColorTexture":{
					"index":1
				},
				"metallicFactor":0.30000001192092896,
				"roughnessFactor":0.30000001192092896
			}
		}
	],
	"meshes":[
		{
			"name":"Knife",
			"primitives":[
				{
					"attributes":{
						"POSITION":0,
						"NORMAL":1,
						"TEXCOORD_0":2,
						"TANGENT":3
					},
					"indices":4,
					"material":0
				},
				{
					"attributes":{
						"POSITION":5,
						"NORMAL":6,
						"TEXCOORD_0":7,
						"TANGENT":8
					},
					"indices":9,
					"material":1
				},
				{
					"attributes":{
						"POSITION":10,
						"NORMAL":11,
						"TEXCOORD_0":12,
						"TANGENT":13
					},
					"indices":14,
					"material":2
				}
			]
		}
	],
	"textures":[
		{
			"sampler":0,
			"source":0
		},
		{
			"sampler":0,
			"source":0
		}
	],
	"images":[
		{
			"mimeType":"image/jpeg",
			"name":"Wear",
			"uri":"../../Models/Blender/Knife/textures/Wear.jpg"
		}
	],
	"accessors":[
		{
			"bufferView":0,
			"componentType":5126,
			"count":28562,
			"max":[
				0.01213006116449833,
				0.12503349781036377,
				0.0012484921608120203
			],
			"min":[
				-0.013363458216190338,
				-0.021838700398802757,
				-0.0012484723702073097
			],
			"type":"VEC3"
		},
		{
			"bufferView":1,
			"componentType":5126,
			"count":28562,
			"type":"VEC3"
		},
		{
			"bufferView":2,
			"componentType":5126,
			"count":28562,
			"type":"VEC2"
		},
		{
			"bufferView":3,
			"componentType":5126,
			"count":28562,
			"type":"VEC4"
		},
		{
			"bufferView":4,
			"componentType":5123,
			"count":135888,
			"type":"SCALAR"
		},
		{
			"bufferView":5,
			"componentType":5126,
			"count":10089,
			"max":[
				0.013683346100151539,
				-0.02237844094634056,
				0.011971019208431244
			],
			"min":[
				-0.014916833490133286,
				-0.1158507689833641,
				-0.01197101455181837
			],
			"type":"VEC3"
		},
		{
			"bufferView":6,
			"componentType":5126,
			"count":10089,
			"type":"VEC3"
		},
		{
			"bufferView":7,
			"componentType":5126,
			"count":10089,
			"type":"VEC2"
		},
		{
			"bufferView":8,
			"componentType":5126,
			"count":10089,
			"type":"VEC4"
		},
		{
			"bufferView":9,
			"componentType":5123,
			"count":50928,
			"type":"SCALAR"
		},
		{
			"bufferView":10,
			"componentType":5126,
			"count":9748,
			"max":[
				0.0265481099486351,
				-0.021330993622541428,
				0.01388018112629652
			],
			"min":[
				-0.02655242383480072,
				-0.1250379979610443,
				-0.01388018112629652
			],
			"type":"VEC3"
		},
		{
			"bufferView":11,
			"componentType":5126,
			"count":9748,
			"type":"VEC3"
		},
		{
			"bufferView":12,
			"componentType":5126,
			"count":9748,
			"type":"VEC2"
		},
		{
			"bufferView":13,
			"componentType":5126,
			"count":9748,
			"type":"VEC4"
		},
		{
			"bufferView":14,
			"componentType":5123,
			"count":48816,
			"type":"SCALAR"
		}
	],
	"bufferViews":[
		{
			"buffer":0,
			"byteLength":342744,
			"byteOffset":0,
			"target":34962
		},
		{
			"buffer":0,
			"byteLength":342744,
			"byteOffset":342744,
			"target":34962
		},
		{
			"buffer":0,
			"byteLength":228496,
			"byteOffset":685488,
			"target":34962
		},
		{
			"buffer":0,
			"byteLength":456992,
			"byteOffset":913984,
			"target":34962
		},
		{
			"buffer":0,
			"byteLength":271776,
			"byteOffset":1370976,
			"target":34963
		},
		{
			"buffer":0,
			"byteLength":121068,
			"byteOffset":1642752,
			"target":34962
		},
		{
			"buffer":0,
			"byteLength":121068,
			"byteOffset":1763820,
			"target":34962
		},
		{
			"buffer":0,
			"byteLength":80712,
			"byteOffset":1884888,
			"target":34962
		},
		{
			"buffer":0,
			"byteLength":161424,
			"byteOffset":1965600,
			"target":34962
		},
		{
			"buffer":0,
			"byteLength":101856,
			"byteOffset":2127024,
			"target":34963
		},
		{
			"buffer":0,
			"byteLength":116976,
			"byteOffset":2228880,
			"target":34962
		},
		{
			"buffer":0,
			"byteLength":116976,
			"byteOffset":2345856,
			"target":34962
		},
		{
			"buffer":0,
			"byteLength":77984,
			"byteOffset":2462832,
			"target":34962
		},
		{
			"buffer":0,
			"byteLength":155968,
			"byteOffset":2540816,
			"target":34962
		},
		{
			"buffer":0,
			"byteLength":97632,
			"byteOffset":2696784,
			"target":34963
		}
	],
	"samplers":[
		{
			"magFilter":9729,
			"minFilter":9987
		}
	],
	"buffers":[
		{
			"byteLength":2794416,
			"uri":"Knife-ea551b06e13efd4e591dfacd9fcb7495.bin"
		}
	]
}
