{
	"asset":{
		"generator":"Khronos glTF Blender I/O v4.1.63",
		"version":"2.0"
	},
	"extensionsUsed":[
		"KHR_texture_transform"
	],
	"extensionsRequired":[
		"KHR_texture_transform"
	],
	"scene":0,
	"scenes":[
		{
			"extras":{
				"blenrig_guide":{
					"state_keyframe_insert_available":0
				},
				"wiggle":{
					"is_rendering":0
				},
				"MustardUI_Settings":{},
				"uuid":"fa3c152b-1ba1-48ef-92ad-ff99a06530cb",
				"assets reported":{},
				"skinify":{
					"connect_mesh":0,
					"connect_parents":0,
					"generate_all":0,
					"thickness":0.800000011920929,
					"finger_thickness":0.25,
					"apply_mod":1,
					"parent_armature":1,
					"sub_level":1
				},
				"sun_pos_properties":{
					"show_surface":0,
					"show_analemmas":0,
					"show_north":0,
					"latitude":0.0,
					"day_of_year":116,
					"sun_object":{},
					"object_collection":{}
				},
				"fluid_painter":{},
				"flip_fluid":{},
				"flip_fluid_helper":{
					"is_auto_frame_load_cmd_operator_running":0,
					"alembic_output_filepath":"//M14.abc",
					"is_alembic_output_filepath_set":1
				},
				"flip_fluid_material_library":{
					"library_path":"C:\\Users\\User\\AppData\\Roaming\\Blender Foundation\\Blender\\4.1\\scripts\\addons\\flip_fluids_addon\\materials\\material_library"
				},
				"scatter_properties":{}
			},
			"name":"Scene",
			"nodes":[
				0
			]
		}
	],
	"nodes":[
		{
			"extras":{
				"flip_fluid":{}
			},
			"mesh":0,
			"name":"M14",
			"rotation":[
				-0.70710688829422,
				0,
				0,
				0.7071066498756409
			]
		}
	],
	"materials":[
		{
			"doubleSided":true,
			"extras":{
				"mmd_material":{},
				"flip_fluid_material_library":{}
			},
			"name":"material",
			"normalTexture":{
				"extensions":{
					"KHR_texture_transform":{
						"scale":[
							2,
							1
						]
					}
				},
				"index":0
			},
			"pbrMetallicRoughness":{
				"baseColorTexture":{
					"extensions":{
						"KHR_texture_transform":{
							"scale":[
								2,
								1
							]
						}
					},
					"index":1
				},
				"metallicRoughnessTexture":{
					"extensions":{
						"KHR_texture_transform":{
							"scale":[
								2,
								1
							]
						}
					},
					"index":2
				}
			}
		},
		{
			"doubleSided":true,
			"extras":{
				"mmd_material":{},
				"flip_fluid_material_library":{}
			},
			"name":"Blue",
			"normalTexture":{
				"index":3
			},
			"pbrMetallicRoughness":{
				"baseColorTexture":{
					"index":4
				},
				"metallicRoughnessTexture":{
					"index":5
				}
			}
		}
	],
	"meshes":[
		{
			"name":"M14",
			"primitives":[
				{
					"attributes":{
						"POSITION":0,
						"NORMAL":1,
						"TEXCOORD_0":2,
						"TANGENT":3
					},
					"indices":4,
					"material":0
				},
				{
					"attributes":{
						"POSITION":5,
						"NORMAL":6,
						"TEXCOORD_0":7,
						"TANGENT":8
					},
					"indices":9,
					"material":1
				}
			]
		}
	],
	"textures":[
		{
			"sampler":0,
			"source":0
		},
		{
			"sampler":0,
			"source":1
		},
		{
			"sampler":0,
			"source":2
		},
		{
			"sampler":0,
			"source":3
		},
		{
			"sampler":0,
			"source":4
		},
		{
			"sampler":0,
			"source":5
		}
	],
	"images":[
		{
			"mimeType":"image/png",
			"name":"M14 Normal Map",
			"uri":"../../Models/Blender/M14/textures/M14%20Normal%20Map.png"
		},
		{
			"mimeType":"image/png",
			"name":"M14 Diffuse",
			"uri":"../../Models/Blender/M14/textures/M14%20Diffuse.png"
		},
		{
			"mimeType":"image/png",
			"name":"M14 Roughness",
			"uri":"../../Models/Blender/M14/textures/M14%20Roughness.png"
		},
		{
			"mimeType":"image/png",
			"name":"Image_2",
			"uri":"../../Models/Blender/M14/textures/Image_2.png"
		},
		{
			"mimeType":"image/png",
			"name":"Image_0",
			"uri":"../../Models/Blender/M14/textures/Image_0.png"
		},
		{
			"mimeType":"image/png",
			"name":"Image_1",
			"uri":"../../Models/Blender/M14/textures/Image_1.png"
		}
	],
	"accessors":[
		{
			"bufferView":0,
			"componentType":5126,
			"count":6398,
			"max":[
				0.0273669995367527,
				0.49219799041748047,
				0.08574999868869781
			],
			"min":[
				-0.03852200135588646,
				-0.3501630127429962,
				-0.10185600072145462
			],
			"type":"VEC3"
		},
		{
			"bufferView":1,
			"componentType":5126,
			"count":6398,
			"type":"VEC3"
		},
		{
			"bufferView":2,
			"componentType":5126,
			"count":6398,
			"type":"VEC2"
		},
		{
			"bufferView":3,
			"componentType":5126,
			"count":6398,
			"type":"VEC4"
		},
		{
			"bufferView":4,
			"componentType":5123,
			"count":21642,
			"type":"SCALAR"
		},
		{
			"bufferView":5,
			"componentType":5126,
			"count":7574,
			"max":[
				0.033417001366615295,
				0.18172399699687958,
				0.100040003657341
			],
			"min":[
				-0.02312299981713295,
				-0.6250839829444885,
				-0.02699900045990944
			],
			"type":"VEC3"
		},
		{
			"bufferView":6,
			"componentType":5126,
			"count":7574,
			"type":"VEC3"
		},
		{
			"bufferView":7,
			"componentType":5126,
			"count":7574,
			"type":"VEC2"
		},
		{
			"bufferView":8,
			"componentType":5126,
			"count":7574,
			"type":"VEC4"
		},
		{
			"bufferView":9,
			"componentType":5123,
			"count":20868,
			"type":"SCALAR"
		}
	],
	"bufferViews":[
		{
			"buffer":0,
			"byteLength":76776,
			"byteOffset":0,
			"target":34962
		},
		{
			"buffer":0,
			"byteLength":76776,
			"byteOffset":76776,
			"target":34962
		},
		{
			"buffer":0,
			"byteLength":51184,
			"byteOffset":153552,
			"target":34962
		},
		{
			"buffer":0,
			"byteLength":102368,
			"byteOffset":204736,
			"target":34962
		},
		{
			"buffer":0,
			"byteLength":43284,
			"byteOffset":307104,
			"target":34963
		},
		{
			"buffer":0,
			"byteLength":90888,
			"byteOffset":350388,
			"target":34962
		},
		{
			"buffer":0,
			"byteLength":90888,
			"byteOffset":441276,
			"target":34962
		},
		{
			"buffer":0,
			"byteLength":60592,
			"byteOffset":532164,
			"target":34962
		},
		{
			"buffer":0,
			"byteLength":121184,
			"byteOffset":592756,
			"target":34962
		},
		{
			"buffer":0,
			"byteLength":41736,
			"byteOffset":713940,
			"target":34963
		}
	],
	"samplers":[
		{
			"magFilter":9729,
			"minFilter":9987
		}
	],
	"buffers":[
		{
			"byteLength":755676,
			"uri":"M14-b24cbe39b50a1315042c118e32c02916.bin"
		}
	]
}
